<svg width="30px" height="24px" xmlns="http://www.w3.org/2000/svg" viewBox="0 0 58.33 35">
    <defs>
        <style>.cls-1{fill:#e51e2f;}</style>
    </defs>
    <g>
        <g>
            <path class="cls-1"
                  d="M53.34,5.45A17.52,17.52,0,0,0,31,3.3c-.29.2-.58.42-.87.64s-.55.45-.82.7l-.63.58L27,6.88l-.76.72-.77.75-9.22,9,9.05,9.2.74.76.75.76c-.27.24-.55.46-.83.67s-.59.42-.89.61a14.29,14.29,0,0,1-14.51.38A14.17,14.17,0,0,1,18.11,3.24a14.39,14.39,0,0,1,7.16,2.31l1.9-1.86.46-.43A17.47,17.47,0,0,0,2.22,8.91a17.36,17.36,0,0,0,8.49,24.51,17.47,17.47,0,0,0,18.33-3l.31-.28.16-.15.16-.15,1.69-1.65L42.12,17.63l-9.06-9.2-.75-.76-.74-.77c.27-.24.55-.46.83-.67s.59-.42.9-.61A14.22,14.22,0,0,1,53.16,10.5a14.2,14.2,0,0,1-20.1,18.94l-.21.21-1.69,1.66-.46.42A17.41,17.41,0,0,0,53.34,5.43ZM37.56,17.59l-7,6.8-.76.74-.76.75-.74-.76-7.57-7.68,7-6.8,1.52-1.48.74.76.75.75Z"/>
        </g>
    </g>
</svg>
