<svg xmlns="http://www.w3.org/2000/svg" xmlns:xlink="http://www.w3.org/1999/xlink" viewBox="0 0 2102.9 1423.22">
    <defs>
        <style>
            .cls-1{fill:#91b3fa;}.cls-2,.cls-4,.cls-47,.cls-5{fill:#fff;}.cls-2{opacity:0.45;}.cls-3{fill:#bdd0fb;}.cls-4{opacity:0.43;}.cls-5{opacity:0.47;}.cls-6{fill:url(#linear-gradient);}.cls-7{fill:url(#linear-gradient-2);}.cls-8{fill:url(#linear-gradient-3);}.cls-9{fill:url(#linear-gradient-4);}.cls-10{fill:url(#linear-gradient-5);}.cls-11{fill:url(#linear-gradient-6);}.cls-12{fill:url(#linear-gradient-7);}.cls-13{fill:url(#linear-gradient-8);}.cls-14{fill:url(#linear-gradient-9);}.cls-15{fill:url(#linear-gradient-10);}.cls-16{fill:url(#linear-gradient-11);}.cls-17{fill:#7d97f4;}.cls-18{fill:url(#linear-gradient-12);}.cls-19{fill:url(#linear-gradient-13);}.cls-20{fill:url(#linear-gradient-14);}.cls-21{fill:url(#linear-gradient-15);}.cls-22{fill:url(#linear-gradient-16);}.cls-23{fill:url(#linear-gradient-17);}.cls-24{fill:url(#linear-gradient-18);}.cls-25{fill:url(#linear-gradient-19);}.cls-26{fill:url(#linear-gradient-20);}.cls-27{fill:url(#linear-gradient-21);}.cls-28{fill:url(#linear-gradient-22);}.cls-29{fill:url(#linear-gradient-23);}.cls-30{fill:url(#linear-gradient-24);}.cls-31{fill:url(#linear-gradient-25);}.cls-32{fill:url(#linear-gradient-26);}.cls-33{fill:url(#linear-gradient-27);}.cls-34{fill:url(#linear-gradient-28);}.cls-35{fill:url(#linear-gradient-29);}.cls-36{fill:url(#linear-gradient-30);}.cls-37{fill:url(#linear-gradient-31);}.cls-38{fill:url(#linear-gradient-32);}.cls-39{fill:url(#linear-gradient-33);}.cls-40{fill:url(#linear-gradient-34);}.cls-41{fill:url(#linear-gradient-35);}.cls-42{fill:url(#linear-gradient-36);}.cls-43{fill:url(#linear-gradient-37);}.cls-44{fill:url(#linear-gradient-38);}.cls-45{fill:url(#linear-gradient-39);}.cls-46{fill:url(#linear-gradient-40);}.cls-47{opacity:0.48;}.cls-48{fill:url(#linear-gradient-41);}.cls-49{fill:url(#linear-gradient-42);}.cls-50{fill:url(#linear-gradient-43);}.cls-51{fill:url(#linear-gradient-44);}.cls-52{fill:url(#linear-gradient-45);}.cls-53{fill:url(#linear-gradient-46);}.cls-54{fill:url(#linear-gradient-47);}.cls-55{fill:url(#linear-gradient-48);}.cls-56{fill:url(#linear-gradient-49);}.cls-57{fill:url(#linear-gradient-50);}.cls-58{fill:url(#linear-gradient-51);}.cls-59{fill:url(#linear-gradient-52);}.cls-60{fill:url(#linear-gradient-53);}.cls-61{fill:url(#linear-gradient-54);}.cls-62{fill:url(#linear-gradient-55);}.cls-63{fill:url(#linear-gradient-56);}.cls-64{fill:url(#linear-gradient-57);}.cls-65{fill:url(#linear-gradient-58);}.cls-66{fill:url(#linear-gradient-59);}.cls-67{fill:url(#linear-gradient-60);}.cls-68{fill:url(#linear-gradient-61);}.cls-69{fill-rule:evenodd;fill:url(#linear-gradient-62);}.cls-70{fill:url(#linear-gradient-63);}.cls-71{fill:url(#linear-gradient-64);}.cls-72{fill:url(#linear-gradient-65);}.cls-73{fill:url(#linear-gradient-66);}.cls-74{fill:url(#linear-gradient-67);}.cls-75{fill:url(#linear-gradient-68);}.cls-76{fill:url(#linear-gradient-69);}.cls-77{fill:url(#linear-gradient-70);}.cls-78{fill:url(#linear-gradient-71);}.cls-79{fill:url(#linear-gradient-72);}.cls-80{fill:url(#linear-gradient-73);}.cls-81{fill:url(#linear-gradient-74);}.cls-82{fill:url(#linear-gradient-75);}
        </style>
        <linearGradient id="linear-gradient" x1="2156.19" y1="874.1" x2="493.6" y2="495.62"
                        gradientTransform="translate(-15.13 -14.49) rotate(-0.59)" gradientUnits="userSpaceOnUse">
            <stop offset="0" stop-color="#e1473d"/>
            <stop offset="1" stop-color="#e9605a"/>
        </linearGradient>
        <linearGradient id="linear-gradient-2" x1="1283.25" y1="748.76" x2="1481.21" y2="1702.56"
                        gradientUnits="userSpaceOnUse">
            <stop offset="0" stop-color="#fe7062"/>
            <stop offset="1" stop-color="#ff928e"/>
        </linearGradient>
        <linearGradient id="linear-gradient-3" x1="-826.97" y1="-685.92" x2="654.55" y2="1420.21"
                        gradientTransform="translate(1047.03 -579.46) rotate(36.68)" xlink:href="#linear-gradient"/>
        <linearGradient id="linear-gradient-4" x1="1173.84" y1="764.02" x2="837.37" y2="859.62"
                        xlink:href="#linear-gradient"/>
        <linearGradient id="linear-gradient-5" x1="1437.09" y1="857.04" x2="1046.59" y2="1192.8"
                        xlink:href="#linear-gradient"/>
        <linearGradient id="linear-gradient-6" x1="1139.12" y1="1017.05" x2="1288.88" y2="1017.05"
                        xlink:href="#linear-gradient-2"/>
        <linearGradient id="linear-gradient-7" x1="1574.6" y1="973.29" x2="1379.43" y2="1316.69"
                        xlink:href="#linear-gradient"/>
        <linearGradient id="linear-gradient-8" x1="1400.41" y1="1115.71" x2="1545.54" y2="1115.71"
                        gradientTransform="matrix(1, 0, 0, 1, 0, 0)" xlink:href="#linear-gradient"/>
        <linearGradient id="linear-gradient-9" x1="1886.91" y1="734.52" x2="1692.23" y2="1186.26"
                        xlink:href="#linear-gradient"/>
        <linearGradient id="linear-gradient-10" x1="1946.62" y1="766.79" x2="1720.04" y2="1110.43"
                        gradientTransform="translate(-15.13 -14.49) rotate(-0.59)" gradientUnits="userSpaceOnUse">
            <stop offset="0" stop-color="#ff928e"/>
            <stop offset="1" stop-color="#feb3b1"/>
        </linearGradient>
        <linearGradient id="linear-gradient-11" x1="1875.41" y1="655.13" x2="1772.4" y2="966.66"
                        xlink:href="#linear-gradient"/>
        <linearGradient id="linear-gradient-12" x1="1131.99" y1="-89.48" x2="1020.98" y2="306.56"
                        gradientTransform="matrix(1, 0, 0, 1, 0, 0)" xlink:href="#linear-gradient"/>
        <linearGradient id="linear-gradient-13" x1="1291.6" y1="-44.74" x2="1180.59" y2="351.3"
                        gradientTransform="matrix(1, 0, 0, 1, 0, 0)" xlink:href="#linear-gradient"/>
        <linearGradient id="linear-gradient-14" x1="1493.26" y1="11.78" x2="1382.25" y2="407.82"
                        gradientTransform="matrix(1, 0, 0, 1, 0, 0)" xlink:href="#linear-gradient"/>
        <linearGradient id="linear-gradient-15" x1="1589.1" y1="38.65" x2="1478.08" y2="434.69"
                        gradientTransform="matrix(1, 0, 0, 1, 0, 0)" xlink:href="#linear-gradient"/>
        <linearGradient id="linear-gradient-16" x1="783.45" y1="244.59" x2="531.04" y2="1858.83"
                        gradientUnits="userSpaceOnUse">
            <stop offset="0" stop-color="#4042e2"/>
            <stop offset="1" stop-color="#4f52ff"/>
        </linearGradient>
        <linearGradient id="linear-gradient-17" x1="399.26" y1="542.91" x2="1089.71" y2="542.91"
                        gradientUnits="userSpaceOnUse">
            <stop offset="0" stop-color="#dae3fe"/>
            <stop offset="1" stop-color="#e9effd"/>
        </linearGradient>
        <linearGradient id="linear-gradient-18" x1="1173.66" y1="-50.6" x2="440.91" y2="973.24"
                        xlink:href="#linear-gradient-2"/>
        <linearGradient id="linear-gradient-19" x1="689.58" y1="606.89" x2="818.48" y2="606.89"
                        gradientTransform="matrix(1, 0, 0, 1, 0, 0)" xlink:href="#linear-gradient-10"/>
        <linearGradient id="linear-gradient-20" x1="-2660.69" y1="427.56" x2="-2587.51" y2="611.14"
                        gradientTransform="matrix(-1, 0, 0, 1, -2330.94, 0)" gradientUnits="userSpaceOnUse">
            <stop offset="0" stop-color="#09005d"/>
            <stop offset="1" stop-color="#1a0f91"/>
        </linearGradient>
        <linearGradient id="linear-gradient-21" x1="-2754.46" y1="533.25" x2="-2645.63" y2="780.86"
                        gradientTransform="matrix(-1, 0, 0, 1, -2330.94, 0)" xlink:href="#linear-gradient-10"/>
        <linearGradient id="linear-gradient-22" x1="-2417.58" y1="1398.1" x2="-2367.73" y2="1398.1"
                        xlink:href="#linear-gradient-20"/>
        <linearGradient id="linear-gradient-23" x1="-2628.65" y1="1590.88" x2="-2556.77" y2="750.74"
                        gradientTransform="matrix(-1, 0, 0, 1, -2330.94, 0)" xlink:href="#linear-gradient-10"/>
        <linearGradient id="linear-gradient-24" x1="-2649.65" y1="1384.78" x2="-2568.83" y2="1384.78"
                        xlink:href="#linear-gradient-20"/>
        <linearGradient id="linear-gradient-25" x1="-2484.06" y1="1603.38" x2="-2412.15" y2="763.02"
                        gradientTransform="matrix(-1, 0, 0, 1, -2330.94, 0)" xlink:href="#linear-gradient-10"/>
        <linearGradient id="linear-gradient-26" x1="317.41" y1="656.6" x2="94.3" y2="1423.77"
                        xlink:href="#linear-gradient-16"/>
        <linearGradient id="linear-gradient-27" x1="-213.25" y1="1272.54" x2="234.75" y2="1016.54"
                        gradientTransform="matrix(1, 0, 0, 1, 0, 0)" xlink:href="#linear-gradient-20"/>
        <linearGradient id="linear-gradient-28" x1="-2636.54" y1="762.76" x2="-2623.03" y2="663.97"
                        gradientTransform="matrix(-1, 0, 0, 1, -2330.94, 0)" xlink:href="#linear-gradient-10"/>
        <linearGradient id="linear-gradient-29" x1="-2580.88" y1="810.9" x2="-2491.18" y2="810.9"
                        gradientTransform="matrix(-1, 0, 0, 1, -2330.94, 0)" xlink:href="#linear-gradient-10"/>
        <linearGradient id="linear-gradient-30" x1="-2670.62" y1="648.4" x2="-2552.8" y2="438.73"
                        gradientTransform="matrix(-1, 0, 0, 1, -2330.94, 0)" xlink:href="#linear-gradient-10"/>
        <linearGradient id="linear-gradient-31" x1="-2645.28" y1="465.81" x2="-2586.38" y2="613.58"
                        xlink:href="#linear-gradient-20"/>
        <linearGradient id="linear-gradient-32" x1="-2645.54" y1="662.49" x2="-2527.73" y2="452.82"
                        gradientTransform="matrix(-1, 0, 0, 1, -2330.94, 0)" xlink:href="#linear-gradient-10"/>
        <linearGradient id="linear-gradient-33" x1="-2775.96" y1="542.7" x2="-2667.13" y2="790.31"
                        gradientTransform="matrix(-1, 0, 0, 1, -2330.94, 0)" xlink:href="#linear-gradient-10"/>
        <linearGradient id="linear-gradient-34" x1="1787.36" y1="277.75" x2="1652.37" y2="336.25"
                        gradientTransform="matrix(1, 0, 0, 1, 0, 0)" xlink:href="#linear-gradient-10"/>
        <linearGradient id="linear-gradient-35" x1="1734.62" y1="303.99" x2="1644.62" y2="369.99"
                        gradientTransform="matrix(1, 0, 0, 1, 0, 0)" xlink:href="#linear-gradient-10"/>
        <linearGradient id="linear-gradient-36" x1="-4558.15" y1="-2225.29" x2="-4584.65" y2="-2345.29"
                        gradientTransform="matrix(-0.59, -0.81, -0.81, 0.59, -3149.17, -1800.51)"
                        xlink:href="#linear-gradient-20"/>
        <linearGradient id="linear-gradient-37" x1="-4527.74" y1="-2232.01" x2="-4554.24" y2="-2352"
                        gradientTransform="matrix(-0.59, -0.81, -0.81, 0.59, -3149.17, -1800.51)"
                        xlink:href="#linear-gradient-20"/>
        <linearGradient id="linear-gradient-38" x1="1891.82" y1="-92.29" x2="1691.82" y2="173.71"
                        gradientTransform="matrix(1, 0, 0, 1, 0, 0)" xlink:href="#linear-gradient-20"/>
        <linearGradient id="linear-gradient-39" x1="1493.68" y1="44.6" x2="1445.41" y2="154.2"
                        gradientTransform="matrix(1, 0, 0, 1, 0, 0)" xlink:href="#linear-gradient-10"/>
        <linearGradient id="linear-gradient-40" x1="1800.19" y1="-191.34" x2="1427.34" y2="105.18"
                        gradientTransform="matrix(1, 0, 0, 1, 0, 0)" xlink:href="#linear-gradient"/>
        <linearGradient id="linear-gradient-41" x1="1793.34" y1="202.13" x2="1637.34" y2="199.13"
                        gradientTransform="matrix(1, 0, 0, 1, 0, 0)" xlink:href="#linear-gradient-20"/>
        <linearGradient id="linear-gradient-42" x1="-2251.79" y1="-277.13" x2="-2223.21" y2="-277.13"
                        gradientTransform="matrix(-0.93, -0.36, -0.36, 0.93, -691.29, -404.92)"
                        xlink:href="#linear-gradient-16"/>
        <linearGradient id="linear-gradient-43" x1="1616.35" y1="193.67" x2="1777.35" y2="257.67"
                        xlink:href="#linear-gradient-16"/>
        <linearGradient id="linear-gradient-44" x1="1544.48" y1="134.53" x2="1687.76" y2="301.28"
                        xlink:href="#linear-gradient-16"/>
        <linearGradient id="linear-gradient-45" x1="1595.62" y1="230.71" x2="1667.5" y2="230.71"
                        gradientTransform="matrix(1, 0, 0, 1, 0, 0)" xlink:href="#linear-gradient-10"/>
        <linearGradient id="linear-gradient-46" x1="1594.53" y1="173.24" x2="1589.2" y2="229.24"
                        gradientTransform="matrix(1, 0, 0, 1, 0, 0)" xlink:href="#linear-gradient-10"/>
        <linearGradient id="linear-gradient-47" x1="1799.79" y1="137.91" x2="1706.79" y2="162.91"
                        xlink:href="#linear-gradient-16"/>
        <linearGradient id="linear-gradient-48" x1="1618.81" y1="120.1" x2="1618.31" y2="209.6"
                        gradientTransform="matrix(1, 0, 0, 1, 0, 0)" xlink:href="#linear-gradient-10"/>
        <linearGradient id="linear-gradient-49" x1="1628.18" y1="-3.94" x2="1583.51" y2="128.73"
                        gradientTransform="matrix(1, 0, 0, 1, 0, 0)" xlink:href="#linear-gradient-10"/>
        <linearGradient id="linear-gradient-50" x1="1555.15" y1="55.87" x2="1681.85" y2="55.87"
                        gradientTransform="matrix(1, 0, 0, 1, 0, 0)" xlink:href="#linear-gradient-20"/>
        <linearGradient id="linear-gradient-51" x1="1673.51" y1="11.33" x2="1628.85" y2="143.99"
                        gradientTransform="matrix(1, 0, 0, 1, 0, 0)" xlink:href="#linear-gradient-10"/>
        <linearGradient id="linear-gradient-52" x1="1015.83" y1="1120.66" x2="1667.86" y2="1239.49"
                        xlink:href="#linear-gradient-16"/>
        <linearGradient id="linear-gradient-53" x1="1724.16" y1="1110.48" x2="1709.5" y2="977.15"
                        xlink:href="#linear-gradient-16"/>
        <linearGradient id="linear-gradient-54" x1="1470.31" y1="1160.16" x2="1416.98" y2="1299.49"
                        gradientTransform="matrix(1, 0, 0, 1, 0, 0)" xlink:href="#linear-gradient-10"/>
        <linearGradient id="linear-gradient-55" x1="1260.15" y1="1181.78" x2="1194.88" y2="1285.08"
                        xlink:href="#linear-gradient-16"/>
        <linearGradient id="linear-gradient-56" x1="1548.75" y1="599.66" x2="1184.06" y2="1325.42"
                        xlink:href="#linear-gradient-2"/>
        <linearGradient id="linear-gradient-57" x1="1607.62" y1="1072.96" x2="1394.62" y2="1058.96"
                        gradientTransform="matrix(1, 0, 0, 1, 0, 0)" xlink:href="#linear-gradient-10"/>
        <linearGradient id="linear-gradient-58" x1="1723.98" y1="939.9" x2="1515.98" y2="996.9"
                        gradientTransform="matrix(1, 0, 0, 1, 0, 0)" xlink:href="#linear-gradient-10"/>
        <linearGradient id="linear-gradient-59" x1="1547.88" y1="628.72" x2="1513.39" y2="882.2"
                        gradientTransform="matrix(1, 0, 0, 1, 0, 0)" xlink:href="#linear-gradient-20"/>
        <linearGradient id="linear-gradient-60" x1="1488.91" y1="915.66" x2="1068.14" y2="1119.19"
                        xlink:href="#linear-gradient-16"/>
        <linearGradient id="linear-gradient-61" x1="1442.93" y1="614.43" x2="1408.43" y2="867.92"
                        gradientTransform="matrix(1, 0, 0, 1, 0, 0)" xlink:href="#linear-gradient-20"/>
        <linearGradient id="linear-gradient-62" x1="1639.17" y1="561.27" x2="1531.18" y2="690.26"
                        gradientTransform="matrix(1, 0, 0, 1, 0, 0)" xlink:href="#linear-gradient-20"/>
        <linearGradient id="linear-gradient-63" x1="1317.9" y1="824.65" x2="1392.26" y2="1102.55"
                        xlink:href="#linear-gradient-16"/>
        <linearGradient id="linear-gradient-64" x1="1340.31" y1="876.89" x2="1462.65" y2="876.89"
                        xlink:href="#linear-gradient-16"/>
        <linearGradient id="linear-gradient-65" x1="1375.22" y1="722.48" x2="1415.72" y2="921.97"
                        gradientTransform="matrix(1, 0, 0, 1, 0, 0)" xlink:href="#linear-gradient-10"/>
        <linearGradient id="linear-gradient-66" x1="1457.65" y1="665.55" x2="1393.15" y2="736.05"
                        gradientTransform="matrix(1, 0, 0, 1, 0, 0)" xlink:href="#linear-gradient-10"/>
        <linearGradient id="linear-gradient-67" x1="1575.45" y1="507.92" x2="1467.45" y2="636.91"
                        gradientTransform="matrix(1, 0, 0, 1, 0, 0)" xlink:href="#linear-gradient-20"/>
        <linearGradient id="linear-gradient-68" x1="890.25" y1="505.98" x2="1191.63" y2="817.15"
                        gradientTransform="matrix(1, 0, 0, 1, 0, 0)" xlink:href="#linear-gradient-10"/>
        <linearGradient id="linear-gradient-69" x1="1024.67" y1="619.52" x2="1099.03" y2="950.26"
                        xlink:href="#linear-gradient-2"/>
        <linearGradient id="linear-gradient-70" x1="1180.48" y1="-37.12" x2="933.9" y2="659.59"
                        gradientTransform="matrix(1, 0, 0, 1, 0, 0)" xlink:href="#linear-gradient"/>
        <linearGradient id="linear-gradient-71" x1="1309.09" y1="401.55" x2="1062.51" y2="1098.24"
                        gradientTransform="translate(-300.72 -169.62) rotate(-10.01)" xlink:href="#linear-gradient"/>
        <linearGradient id="linear-gradient-72" x1="1092.8" y1="813.31" x2="1842.35" y2="1073.6"
                        gradientTransform="matrix(1, 0, 0, 1, 0, 0)" xlink:href="#linear-gradient-20"/>
        <linearGradient id="linear-gradient-73" x1="1129.62" y1="727" x2="1224.11" y2="638.5"
                        xlink:href="#linear-gradient-16"/>
        <linearGradient id="linear-gradient-74" x1="1322.47" y1="908.59" x2="1599.39" y2="908.59"
                        gradientTransform="matrix(1, 0, 0, 1, 0, 0)" xlink:href="#linear-gradient-10"/>
        <linearGradient id="linear-gradient-75" x1="1644.43" y1="721.84" x2="1476.43" y2="816.34"
                        xlink:href="#linear-gradient-16"/>
    </defs>
    <g id="Слой_2" data-name="Слой 2">
        <g id="Illustration">
            <path class="cls-1"
                  d="M530.63,1029.36s84.61-154.8-3.87-302.46c-82.1-137-295.89-452.7-283.14-634.31.56-8-14.8-4.88-20.05,4.15C167.29,193.6,48,435.24,101.15,666.54,169.77,964.81,530.63,1029.36,530.63,1029.36Z"/>
            <path class="cls-2"
                  d="M209.28,262.45c-7.07,15.91-12.14,32.65-16.34,49.55a410.36,410.36,0,0,0-11.89,103.85,441.52,441.52,0,0,0,3.9,52.37,425.1,425.1,0,0,0,27.43,101.34l5.25,12.07c.9,2,1.72,4,2.67,6l2.89,5.91L229,605.37l6.3,11.55,3.16,5.77c1.09,1.9,2.26,3.76,3.39,5.64l6.86,11.22c4.67,7.39,9.46,14.64,14.23,21.93,38.35,58.16,80.66,113.64,124.64,167.43,21.84,27,43.89,53.82,64.22,81.79a374.2,374.2,0,0,1,27.72,43.65A213.19,213.19,0,0,1,490,977.88a151,151,0,0,1,6.73,24.85v0a1.24,1.24,0,0,0,1.44,1,1.26,1.26,0,0,0,1-1.4,155.69,155.69,0,0,0-5.82-25.64,206.16,206.16,0,0,0-9.95-24.35,378.93,378.93,0,0,0-26.76-45.09c-9.78-14.46-20.33-28.33-30.88-42.16s-21.32-27.47-32-41.15-21.35-27.38-31.88-41.16-21.07-27.54-31.34-41.5Q299.7,699.49,271,656.19c-4.74-7.24-9.51-14.5-14.11-21.79l-6.72-11c-1.1-1.84-2.27-3.65-3.35-5.51l-3.12-5.63L237.39,601l-5.76-11.53-2.87-5.77c-.95-1.93-1.77-3.92-2.65-5.87L220.88,566c-1.63-4-3.15-8-4.73-12l-2.35-6L211.7,542c-1.39-4.07-2.87-8.1-4.18-12.19l-3.71-12.35a431.81,431.81,0,0,1-11.17-50.34,438.38,438.38,0,0,1-4-103.09c2.8-34.39,9.11-68.76,20.92-101.41a.15.15,0,0,0-.08-.2A.15.15,0,0,0,209.28,262.45Z"/>
            <path class="cls-3"
                  d="M3.33,290.73c.49-8.64,12.27-10.9,15.88-3C54.14,363.82,152,560.54,269.57,654.56c191.46,153.09,346,426.38,265.18,593.33C534.75,1247.89-49.12,1233.13,3.33,290.73Z"/>
            <path class="cls-4"
                  d="M35.51,402.12c.64,2.92,1.3,4.87,1.94,7.19l2,6.69,4.16,13.29,8.85,26.37Q61.58,482,71.26,508q19.51,52.1,41.56,103.22,43.94,102.27,97.61,200.13c35.83,65.08,75.34,128.26,119.62,188.09,22.35,29.74,45.58,58.85,70.61,86.42,25.24,27.34,51.53,53.75,79.88,77.81a3,3,0,0,0,4-4.41c-52.61-51.77-99-109.2-141.49-169.24S262.15,867,226.31,802.6s-68.69-130.51-99.63-197.52C111.34,571.52,96.34,537.79,82,503.74q-10.82-25.5-21.11-51.22L50.86,426.73,45.92,413.8l-2.4-6.47-2.12-6.07-.26-.74a2.93,2.93,0,0,0-5.63,1.6Z"/>
            <path class="cls-3"
                  d="M1799,1077.47s-58.06-106.23,2.65-207.56c56.34-94,203-310.64,194.3-435.26-.39-5.52,10.16-3.35,13.76,2.85,38.61,66.46,120.51,232.28,84,391C2046.67,1033.17,1799,1077.47,1799,1077.47Z"/>
            <path class="cls-2"
                  d="M2019.36,551.29c8.1,22.4,12.43,46,14.35,69.58a296.25,296.25,0,0,1-10.4,105.29l-2.55,8.47c-.9,2.81-1.92,5.58-2.87,8.37l-1.44,4.18-1.61,4.12c-1.09,2.74-2.13,5.5-3.25,8.22l-3.59,8.09c-.6,1.34-1.17,2.7-1.81,4l-2,4-4,7.91-4.29,7.73-2.15,3.87c-.74,1.27-1.54,2.51-2.29,3.78l-4.61,7.55c-3.16,5-6.44,10-9.69,14.95q-19.7,29.73-40.91,58.42-10.58,14.36-21.51,28.47t-21.87,28.24c-7.34,9.39-14.7,18.77-22,28.24s-14.47,19-21.19,28.93a261.32,261.32,0,0,0-18.36,30.94,143.51,143.51,0,0,0-6.83,16.71,107.24,107.24,0,0,0-4,17.6.85.85,0,0,0,.73,1,.86.86,0,0,0,1-.7h0a104.22,104.22,0,0,1,4.62-17,147.4,147.4,0,0,1,7.2-16.15,258.23,258.23,0,0,1,19-30c13.95-19.19,29.08-37.59,44.07-56.13,30.18-36.91,59.21-75,85.53-114.89,3.28-5,6.56-10,9.76-15l4.71-7.71c.78-1.28,1.58-2.56,2.33-3.86l2.16-4,4.33-7.92,4-8.11,2-4c.65-1.36,1.22-2.76,1.83-4.13l3.6-8.29a291.94,291.94,0,0,0,18.83-69.53,304.72,304.72,0,0,0,2.67-35.94,282.18,282.18,0,0,0-8.16-71.26,205.51,205.51,0,0,0-11.21-34,.11.11,0,0,0-.14-.05A.11.11,0,0,0,2019.36,551.29Z"/>
            <path class="cls-1"
                  d="M2044.51,90.54c3.81-7-6.12-12-14.35-7.31-83.57,47.86-292.53,192.44-322.9,455.32C1669.15,868.37,1546.49,985.4,1414.77,1055c0,0,162.7-29.67,292.62-148.25C2026.37,615.63,1976.62,214.83,2044.51,90.54Z"/>
            <path class="cls-5"
                  d="M1959.6,189.88c-11.39,12.31-21.32,25.63-30.75,39.34-2.32,3.45-4.76,6.82-7,10.34l-6.68,10.53-3.34,5.27-3.15,5.38-6.29,10.77a761.21,761.21,0,0,0-42.86,90.06l-9,23.28c-2.74,7.85-5.32,15.76-8,23.64l-4,11.84c-1.21,4-2.33,8-3.5,12l-7,24c-.61,2-1.12,4-1.6,6l-1.48,6.06-3,12.13-3,12.12c-1,4.05-2,8.08-2.76,12.18l-4.87,24.48c-1.63,8.17-3.28,16.35-4.75,24.36-12,64.55-34,127-61.2,186.81-3.36,7.5-7,14.9-10.49,22.33s-7.27,14.74-11.09,22q-11.32,21.91-23.68,43.28t-25.59,42.18c-4.42,6.93-9,13.78-13.59,20.57s-9.33,13.58-14.12,20l-.08.1a5.91,5.91,0,0,0,9.44,7.12C1666.61,904.65,1676,891,1685.12,877s17.88-28.11,26.29-42.48,16.38-29,24-43.78c3.87-7.38,7.55-14.85,11.26-22.31s7.23-15,10.65-22.6,6.78-15.22,10.14-22.85c3.19-7.69,6.43-15.37,9.4-23.16,6.12-15.5,11.67-31.24,16.87-47.08l3.79-11.92c1.26-4,2.37-8,3.56-12,2.43-8,4.46-16.07,6.64-24.13,4-16.19,7.79-32.46,10.66-48.92l8.9-48.71C1828,503,1829,499,1829.88,495l2.75-12,2.75-12,1.37-6c.44-2,.92-4,1.49-6l6.52-23.81c1.09-4,2.14-7.95,3.28-11.91l3.76-11.75c2.52-7.84,5-15.7,7.56-23.51l8.38-23.22a756.06,756.06,0,0,1,40.32-90.12l5.9-10.85,3-5.43,3.14-5.32,6.29-10.63c2.09-3.55,4.4-7,6.59-10.45s4.42-7,6.8-10.32,4.6-6.83,7.06-10.13c4.83-6.64,9.77-13.3,15.12-19.43l0-.06a1.59,1.59,0,0,0-2.36-2.12Z"/>
            <path class="cls-6"
                  d="M1924.06,808c-28.15-162.59-144.8-288.66-253.1-388.79-81.14-75-165.75-145.8-252.52-212.17-66.76-51.06-145.86-103.14-222-134.16-41.65-17-86.19-28.52-130-21.84-81.36,12.4-120.64,64.15-131.58,156.12-6.13,51.5,6.24,145.12-49.73,157.1C836.26,374.74,787,343.6,741.28,327.87c-15.58-5.37-31.37-10.77-47.63-11.61C640.19,313.51,592.74,362.33,574,419.34,535.08,537.55,630.16,673.74,695.11,759,770.59,858.14,861.88,940.46,956,1015.37c159,126.52,346.46,220.37,541.43,238.16,117.61,10.74,246.13-12.26,332.79-109.87C1906.35,1057.94,1944.88,928.33,1924.06,808ZM1090.64,288.92c-55.47-19.28-91.4-68.6-80.24-110.15s65.18-59.61,120.66-40.32,91.4,68.6,80.24,110.15S1146.12,308.21,1090.64,288.92Z"/>
            <path class="cls-7"
                  d="M1934.33,794.07c-27.89-161.11-143.49-286-250.8-385.25-80.4-74.33-164.23-144.47-250.21-210.23C1367.16,148,1288.78,96.38,1213.38,65.65,1172.12,48.83,1128,37.39,1084.52,44,1003.91,56.29,965,107.57,954.14,198.7c-6.07,51,6.19,143.8-49.28,155.67-48.42,10.36-97.23-20.5-142.53-36.09-15.45-5.31-31.09-10.67-47.2-11.5-53-2.72-100,45.65-118.58,102.15C558,526.06,652.22,661,716.57,745.51c74.79,98.21,165.26,179.78,258.54,254,157.53,125.36,343.3,218.35,536.49,236,116.54,10.63,243.89-12.16,329.76-108.87C1916.78,1041.71,1955,913.28,1934.33,794.07ZM1108.51,279.69c-55-19.11-90.57-68-79.52-109.15s64.59-59.06,119.56-39.95,90.57,68,79.51,109.15S1163.48,298.8,1108.51,279.69Z"/>
            <ellipse class="cls-8" cx="734.69" cy="541.06" rx="87.57" ry="99.63"/>
            <ellipse class="cls-3" cx="726.41" cy="536.86" rx="68.66" ry="78.11"/>
            <ellipse class="cls-9" cx="922.1" cy="809.53" rx="87.57" ry="99.63"/>
            <ellipse class="cls-3" cx="922.1" cy="809.53" rx="80.65" ry="91.75"/>
            <ellipse class="cls-10" cx="1214.82" cy="1017.14" rx="87.57" ry="99.63"/>
            <ellipse class="cls-11" cx="1214" cy="1017.05" rx="74.88" ry="85.18"/>
            <ellipse class="cls-12" cx="1474.67" cy="1113.11" rx="87.57" ry="99.63"/>
            <ellipse class="cls-13" cx="1472.97" cy="1115.71" rx="72.56" ry="82.55"/>
            <ellipse class="cls-14" cx="1729.97" cy="1056.76" rx="87.57" ry="99.63"/>
            <ellipse class="cls-15" cx="1728.31" cy="1059.3" rx="80.61" ry="91.71"/>
            <ellipse class="cls-16" cx="1808.8" cy="803.05" rx="87.57" ry="99.63"/>
            <ellipse class="cls-17" cx="1807.86" cy="804.48" rx="79.28" ry="90.19"/>
            <path class="cls-18"
                  d="M1010.48,342.9,903,452.37c-17.6,17.93-19.09,48.69-3.33,68.71l23.43,29.76c18.49,23.49,51.44,21.07,67.12-4.93l84-139.23c10.9-18.05,9.85-42.15-2.55-58.9h0C1056.17,326.8,1028.45,324.58,1010.48,342.9Z"/>
            <path class="cls-19"
                  d="M1105.05,427.74,1040.27,585c-9.34,22.7-2.81,49.76,15.41,63.85l46.19,35.72c28,21.62,66.12,1.59,69.8-36.65l18.58-193c2.06-21.43-7.94-42-25-51.44h0C1142.76,391.05,1115.66,402,1105.05,427.74Z"/>
            <path class="cls-20"
                  d="M1263.4,414.51c-11.44,6.19-21.18,16-20,32.11,5.88,82.84,9.85,165.87,16.67,248.63.91,11.13.94,23.78,4.07,34.39,44.26,2.61,89.54,10.26,133.83,9.74,21.45,1.67,35.78-24.69,24.89-45.78-20.8-46.13-45.91-89.47-69.16-134-24.86-47.6-49.28-95.5-73.91-143.25C1275.18,407.49,1270.08,410.89,1263.4,414.51Z"/>
            <path class="cls-21"
                  d="M1319.48,390.11c37.77,52.42,135.77,198.93,184.7,272.36,14.3,21.46,42.73,21.15,56.67-.61l70.47-110c11.94-18.62,7.67-44.83-9.33-57.37L1374.44,312.07c-17.58-12.95-41.14-5.75-50.65,15.47l-8.46,18.87C1309,360.62,1310.59,377.77,1319.48,390.11Z"/>
            <path class="cls-1"
                  d="M443.09,1292.49a19.86,19.86,0,0,1-2.17-.12,18.76,18.76,0,0,1-16.49-20.78L542.19,246.84a18.76,18.76,0,1,1,37.27,4.28L461.7,1275.87A18.76,18.76,0,0,1,443.09,1292.49Z"/>
            <path class="cls-1"
                  d="M1090.41,1292.5a18.79,18.79,0,0,1-18.29-14.66L842.36,253.08a18.76,18.76,0,1,1,36.61-8.2l229.76,1024.75a18.76,18.76,0,0,1-14.2,22.41A19.41,19.41,0,0,1,1090.41,1292.5Z"/>
            <path class="cls-1"
                  d="M702.39,1292.49a18.76,18.76,0,0,1-18.76-18.76V768a18.76,18.76,0,0,1,37.52,0v505.73A18.76,18.76,0,0,1,702.39,1292.49Z"/>
            <path class="cls-22"
                  d="M327,134.33l66,830.76a33.2,33.2,0,0,0,33.9,30.56l688.88-16.8a33.2,33.2,0,0,0,32-38.41L1015.78,112.06a33.18,33.18,0,0,0-33.55-28L359.28,98.52A33.19,33.19,0,0,0,327,134.33Z"/>
            <path class="cls-17"
                  d="M384.62,121.39,962.3,108a33.21,33.21,0,0,1,33.55,28l124.44,781.67a33.21,33.21,0,0,1-32,38.41l-639.88,15.6a33.19,33.19,0,0,1-33.9-30.56L352.29,157.2A33.2,33.2,0,0,1,384.62,121.39Z"/>
            <path class="cls-23"
                  d="M428.4,167l519-12a29.82,29.82,0,0,1,30.14,25.13l111.8,702.26a29.82,29.82,0,0,1-28.72,34.5l-574.88,14a29.84,29.84,0,0,1-30.46-27.46L399.36,199.14A29.81,29.81,0,0,1,428.4,167Z"/>
            <path class="cls-24"
                  d="M826.83,854.72s-273.35,9-318.66-160.77c-36.42-136.46,72.61,1.89,199.4,86,9.95,6.6,20.34-7.73,11-15.14C626.54,692,494,573.37,516.1,509c33.36-97.11,43.44-44.05,132.49,66.84S781.74,682,733.06,600.51,547.45,446.89,555.78,391.12,614.93,260,632.89,223.62s191.33,60.05,191,131.85-51.76,179.73-24,237.72,53.28-58.05,61.89-122.67,24.77-102.58,72.19-36.11,6.36,165.7-40.54,223S836.74,763.76,862,737.51,958.17,624.12,964.3,582.24,1069.24,701.15,826.83,854.72Z"/>
            <path class="cls-25"
                  d="M815,845.32a2.38,2.38,0,0,1-1.39-2.06C803,634,690.92,374.21,689.78,371.61a2.42,2.42,0,0,1,4.43-1.93c1.14,2.61,113.55,263.16,124.26,473.34a2.41,2.41,0,0,1-2.29,2.53A2.29,2.29,0,0,1,815,845.32Z"/>
            <path class="cls-26"
                  d="M257.91,524c-3.75,2.05-7.4,4.46-11.51,5.53-13.62,3.55-21.35,1.75-32,13a45,45,0,0,0-12.46,28.92c-.65,16.53,7.53,34.82-1.58,48.63-7.31,11.07-23.44,14.56-29,26.61s2.34,25.78,8.92,37.41,11.39,27.86,1.65,37c-3.94,3.7-9.41,5.19-14.16,7.78-10.45,5.71-17.37,17.75-16.13,29.59s11.12,22.48,23,23.74c17.23,1.84,20.62,5.24,29.77,19.52,5.93,9.24,18.28,13.5,28.9,10.71s19-12,21.79-22.65c3.08-12-.37-25.21,4.41-36.6,3.66-8.73,11.32-15.46,17-22.89,3-3.94,12.79-14.43,13.11-19.2q2.85-43.38,5.72-86.77c.94-14.29,4.26-30.49,2.95-44.78-.51-5.58-.71-5.26-3.32-11.23-2.83-6.47-4.53-8-5.31-15.13-.81-7.49.81-13.85-3-21.05s-12.1-12.66-20.26-11.36A26.13,26.13,0,0,0,257.91,524Z"/>
            <path class="cls-27"
                  d="M473.73,455.49S417.23,609.5,321,657.64c0,0,32,52.28,48.76,55.45,0,0,102.83-131.62,113.32-239.45Z"/>
            <path class="cls-28"
                  d="M86.58,1381.92l-2.84,23.36c-.54,4.43-11,15.68-15.49,16.19-7.49.85-10.73,2.55-22.49,1.31-5.16-.55-10.25-14.34-8.68-19.29,2.86-9,8.11-22.55,15.67-30.51H78.66A8,8,0,0,1,86.58,1381.92Z"/>
            <path class="cls-29"
                  d="M289.52,1108.31l4.37,25.73s-14.65,148.34-17.25,207.67a46.5,46.5,0,0,0,6.88,26.43L309,1409.49l-64.72-38.19-1.29-7.9,10.59-14.56L239.7,1182.66a50.89,50.89,0,0,1,5.8-28.2l13.38-25.15Z"/>
            <path class="cls-30"
                  d="M313.25,1415.48H292.59a12.43,12.43,0,0,1-9.87-4.84c-6.43-8.36-19.77-24.68-26.15-25.11-8.59-.57-7.49,30-7.49,30h-4.81l-6.1-37.93A22.46,22.46,0,0,1,250,1354.08h0s2,14.52,12.61,20.94,43.31,29.41,43.31,29.41a29.37,29.37,0,0,1,8.39.23C320.78,1405.83,319.87,1415.48,313.25,1415.48Z"/>
            <path class="cls-31"
                  d="M200.87,1120.53s-85.79,162.74-99.43,199.9-18.42,68.16-18.6,71.09c-.29,4.59-6,9-21.72,9-8.11,0-12.09-3.26-14-6.41a9.15,9.15,0,0,1-.35-8.87c5-10,20.71-42.15,26.55-56.7,7-17.38,21.94-96.15,30.16-123.54s17.5-57.1,53.28-84.46C156.73,1120.53,181.29,1096.48,200.87,1120.53Z"/>
            <path class="cls-32"
                  d="M255.07,853.87c22.13-93.78-33.93-146.82-33.93-146.82,35.37-34,99.83-49.41,99.83-49.41s61.5,45,54.2,80.16c-4.27,20.63-43.23,123.55-43.23,123.55S295.92,878.4,255.07,853.87Z"/>
            <path class="cls-33"
                  d="M206,900.29c9-27.13,49.07-46.42,49.07-46.42,40.85,24.53,76.87,7.48,76.87,7.48s8.08,30.88,2.51,59.58S293.89,1134,293.89,1134C238.77,1145.2,154,1122.8,154,1122.8,189.11,1060.47,197,927.43,206,900.29Z"/>
            <path class="cls-34"
                  d="M280.76,595.67l-18,80.82c-1.73,7.12,4.76,6,12,4.59,11.79-2.22,27-6.79,32.06-16a8.87,8.87,0,0,0,.92-3L315.44,606a10.07,10.07,0,0,0-5.9-10.58l-14.91-6.61A10.07,10.07,0,0,0,280.76,595.67Z"/>
            <path class="cls-35"
                  d="M221.14,707.05S95.55,796.89,205.08,891.31a28.29,28.29,0,0,0,12.39,7.18c4.14,1.24,16.41,10.52,22.63,15.36a4.27,4.27,0,0,0,6.24-1.12h0a5.86,5.86,0,0,0,.33-5.58l-15.55-32.88a12,12,0,0,0-15.58-.67h0a5.91,5.91,0,0,1-9-2c-8.46-17.24-24.45-67.95,41-125.26a7.09,7.09,0,0,0,1.57-8.62C244.53,728.85,234,711.31,221.14,707.05Z"/>
            <path class="cls-36"
                  d="M301.87,531.72s21.31,9,35.8,39.79,3.67,45-9.92,47-33.92,1.65-55.42-18.24S274.17,521.06,301.87,531.72Z"/>
            <path class="cls-37"
                  d="M286.78,583.8s-16.07-45,23.87-45.58l9.4,6.56s14.65-25-9.4-36.9-52.21-2.07-62.45,30.34-12,54.1,5.05,69.6,24.05-2.07,24.05-2.07-9.28-14.51-5.5-22.27,12.48,1.61,12.48,1.61Z"/>
            <path class="cls-38" d="M282.3,588.82s-8.13-23.21-19-14,8.81,21.44,16.51,25.39Z"/>
            <path class="cls-39"
                  d="M479.15,483.52c.86,2.74-9.12,6.92-15-4.29-.2-5.37-3.47-28.38-.26-32.76C481,423.17,514.13,394,514.13,394c5.6,5.53,1,11,1,11L499,421.66c3.36,6.07,7.46,11.2,9.38,18.55a22.51,22.51,0,0,1-2.24,16.58c-2.83,5.09-6.68,11.7-10.32,16.87C489,483.45,479.15,483.52,479.15,483.52Z"/>
            <path class="cls-40"
                  d="M1523.65,324.94c-30.3,41.77-21.59,86.85,39.19,117.19,4.27-3.89,5.48-7.53,1.18-15.76-48.43-34.87-41-66.51-11.24-86.61Z"/>
            <path class="cls-41"
                  d="M1586.94,344c-24.27,43.28-19,77.06,50.79,99.43,3.82-9.87,2.23-15.35-3.69-17.3-52.79-26.52-39.33-47.36-13.12-69.86Z"/>
            <path class="cls-42"
                  d="M1637.72,428.14c2,8.36,1.07,12.68-5.26,14.41-3.83,13.69-1.72,21.27,4.82,24.28,8.14-11.57,14.31-24,16.31-38.2C1647.55,426.39,1639.17,424.44,1637.72,428.14Z"/>
            <path class="cls-43"
                  d="M1564,426.37c2,8.3,1.06,12.61-5.24,14.33-3.8,13.6-1.7,21.13,4.8,24.12,8.09-11.5,14.22-23.84,16.21-38C1573.78,424.63,1565.45,422.69,1564,426.37Z"/>
            <path class="cls-44"
                  d="M1652,266.17c4.13,28.23-8.47,64-30.71,93.4-15.77,1.74-32.88.24-46.1-8.07l16.73-37.94-7.89-2.35-32.79,33.61c-14.77,2.17-24.65-5.33-36.19-12.89,12.85-28.34,42.09-41.58,49.63-81.16Z"/>
            <path class="cls-45"
                  d="M1491.57,117.59s17.28-18.12,1.5-34.2-26.53-5.94-39.19-20.85C1453.88,62.54,1450.47,104.9,1491.57,117.59Z"/>
            <path class="cls-46"
                  d="M1483.4,74.22c.87.25,6.09.51,6.53,3.57s-2.36,4.11-8.82,2.41-8.76,2.35-4.62,7.21-.12,7.63-5.39,3.53-6-2-4.75,2.35-5,5.93-8.89.1a53.43,53.43,0,0,1-7.63-32.51,1.88,1.88,0,0,1,3.11-1.21C1456.79,63,1465.62,69,1483.4,74.22Z"/>
            <path class="cls-47"
                  d="M1491.87,110.66a18.82,18.82,0,0,0,2.85-6.63,17.59,17.59,0,0,0,.17-7,13.84,13.84,0,0,0-.4-1.69l-.22-.83-.32-.8c-.23-.53-.4-1.08-.66-1.59l-.84-1.5a9.65,9.65,0,0,0-.93-1.45l-1-1.39c-.74-.88-1.54-1.72-2.3-2.57l-.15-.18a2.1,2.1,0,0,1,3.15-2.79l.17.22c.73,1.1,1.49,2.15,2.17,3.26l.91,1.73a11.48,11.48,0,0,1,.82,1.78l.69,1.83c.21.62.33,1.27.49,1.9l.23,1,.12,1c0,.65.18,1.29.17,1.94a19.21,19.21,0,0,1-1.25,7.51A19.48,19.48,0,0,1,1491.87,110.66Z"/>
            <path class="cls-48"
                  d="M1509.7,144c26.25,47.26,38,87.59,42,103.4a2.17,2.17,0,0,1-3.62,2.08c-34-33.69-48.47-69.62-54.64-95.32C1499,147.12,1505.32,144.74,1509.7,144Z"/>
            <path class="cls-49"
                  d="M1492.85,116c6.19,9.51,11.79,18.88,16.85,28-4.38.74-10.67,3.12-16.29,10.16-5.14-21.41-4.51-35.72-4.51-35.72C1490,115.09,1492.85,116,1492.85,116Z"/>
            <path class="cls-50"
                  d="M1582.65,146.2c-7.26-3.36-48.7,40.79-42.91,44.82-5,3,20.17,17.46,25.57,13.35C1566.71,203.3,1582.65,146.2,1582.65,146.2Z"/>
            <path class="cls-51"
                  d="M1657.52,149.07a27.79,27.79,0,0,0-5.45-5.49c-10.42-7.77-25.94-3.61-38.07-4.2-4.67-.23-10.39-1.83-14.92-.42-8.41,2.63-18.07,5.36-24.69,11.43-9.35,8.56-11.06,21.6-12.91,33.41-2.3,14.71-1.92,28.6-1.92,43.49v41.9c23.07,24.23,59.08,30.62,108.54,7.78-.42-21.7-1.26-43.46-.54-65.17.61-18.44,4.22-33.16-3.47-50.93A56,56,0,0,0,1657.52,149.07Z"/>
            <path class="cls-52"
                  d="M1600.18,277.36c7.93,6.52,69.72-65.9,67.25-71l-25.36-22.69c-12,34.22-26.45,62.77-46.45,77.76Z"/>
            <path class="cls-1"
                  d="M1609.82,303.21l-28.64-100a2.93,2.93,0,0,0-2.47-2.1c-5.19-.61-20.22-2.31-37.58-3.77-20.92-1.77-45.2-3.21-59.71-2a2.93,2.93,0,0,0-2.39,4.22c8.25,16.69,42.19,84.6,59.19,106.85a3,3,0,0,0,2.36,1.16l66.45-.62A2.93,2.93,0,0,0,1609.82,303.21Z"/>
            <path class="cls-17"
                  d="M1538.15,188.65l-20.76-3.46a1.48,1.48,0,0,0-1.66,1.93l2.06,6.23a1.47,1.47,0,0,0,1.21,1l20,2.67a1.49,1.49,0,0,0,1.64-1.82l-1.27-5.43A1.47,1.47,0,0,0,1538.15,188.65Z"/>
            <path class="cls-17"
                  d="M1553.7,206.22l-1.71-8.91a2.07,2.07,0,0,0-1.81-1.66l-41.94-4.25a2.06,2.06,0,0,0-2.21,2.53l2.66,11.1a2.08,2.08,0,0,0,1.9,1.58l41,2.06A2.06,2.06,0,0,0,1553.7,206.22Z"/>
            <path class="cls-53"
                  d="M1602.9,279s4-16.4,2.38-22.22-4.73-13.31-15.12-11.64-22.66,6-22.66,6,.62,7.58,8.52,5.13l-4.9,3.79s.7,6.07,7.38,2.83l-4.56,5s2.87,5,7.78,1.78S1589,281,1602.9,279Z"/>
            <path class="cls-54"
                  d="M1633.55,198.09c7.59,7.32,20.09,11.32,37.82,11.77,4.49-35.72-3.89-57.93-23.29-68.6C1639.59,164.12,1634,183.87,1633.55,198.09Z"/>
            <path class="cls-1"
                  d="M1633.55,198.61h0a.51.51,0,0,1-.49-.55,145,145,0,0,1,11.76-49.24.52.52,0,0,1,1,.41,144.17,144.17,0,0,0-11.68,48.89A.51.51,0,0,1,1633.55,198.61Z"/>
            <path class="cls-55" d="M1637.15,100.51V143.9c-9.44,6.55-24.5,7-37,.42l5.39-43.81Z"/>
            <path class="cls-56"
                  d="M1558.09,79.75a111.86,111.86,0,0,0-.23,15.93c1.22,20,19,35.94,39.43,35.94,24.76,0,44.83-23.65,44.83-52.82S1622.05,26,1597.29,26C1570.22,26,1560.14,55.33,1558.09,79.75Z"/>
            <path class="cls-57"
                  d="M1639.18,95.87c-5.09,6.74.88,13.45,7.51,15.37,8.46,2.45,20.85-4.7,26.15-10.85,9.82-11.4,9.47-28,8.6-42.91-.21-3.64-.51-7.53-2.79-10.4-2.05-2.57-5.41-3.94-7.28-6.63-1.36-2-1.77-4.37-2.35-6.66-2.25-8.93-7.72-17.3-15.81-21.88s-18.89-4.81-26.52.49c-8.32-7.66-19.43-12.84-30.8-12.37s-22.7,7.31-26.65,17.84c-.77,2-1.39,4.36-3.24,5.56a13.87,13.87,0,0,1-2.69,1.12c-4.72,1.84-7.62,6.91-7.77,11.91-.16,5.46,6,10,2.92,14.55-4.27,6.23-4.79,16.76.69,22.48a98.46,98.46,0,0,0,4.26-9.63c1.43-3.46,1.82-9,3.86-11.92-.21.3,9.65,3,11,2.69,2.74-.53,3.55-1.78,5.24-3.76,4.09-4.81,10-10.46,13.53-2.22a7.66,7.66,0,0,0,9,4.1c-2.85,4.26-2,10.14.76,14.48s7,7.47,11.16,10.5l9.84,7.15c4.15,3,9.3,6.18,14.1,4.35C1643.41,91.33,1640.75,93.8,1639.18,95.87Z"/>
            <path class="cls-58"
                  d="M1653.19,96c-2.91,4.75-8.37,8-13,11a7.9,7.9,0,0,1-4.18,1.65c-6.56-.08,2-16.35,4-18.14a25.13,25.13,0,0,1,5.72-4.07,8.48,8.48,0,0,1,6.86-.35C1657.4,88.28,1655.19,92.76,1653.19,96Z"/>
            <path class="cls-59"
                  d="M1744.2,1134.76c15.25,3.42,27.51,12,36.31,25a41,41,0,0,1,5.49,10.86,39.26,39.26,0,0,1,1.49,7.76c3.35,33-21,58.19-48.48,72-36.48,18.33-74.88,17.76-114.34,20.4-40.45,2.71-80.89,5.42-121.36,7.8-35.22,2.07-70.46,4-105.72,5.26-20.42.78-40.84,1.58-61.26,2.19-19.55.58-40.77,3.29-60.15.83,6.88-17.85,6.26-43.66,6.13-62.81-.1-14.38-1-28.74-1.88-43.08-.43-6.68-5.68-31.74-.61-35.73,1.72-1.35,4.51-1.91,7.67-2.08,5.76-.3,12.73.7,16.6.61q15.12-.35,30.23-.44c20.17-.13,40.33,0,60.49.37,79.49,1.35,160.87,1.23,238.67,18.46,3.11.7,40.7,7.37,40.47,6.54-2.49-8.78,4.62-17.36,12.13-22.56A74.7,74.7,0,0,1,1744.2,1134.76Z"/>
            <path class="cls-60"
                  d="M1787.55,1196.24c-2,6.92-4.2,15.69-9.9,20.6a9.64,9.64,0,0,0,1.21-4.2,80.4,80.4,0,0,0-4-34.53c-5.24-15.28-16.53-24.1-30.78-30.38-8.6-3.78-18-6.24-27.36-5.57s-18.76,4.75-24.55,12.15c-4.48,5.74-7,16.94-.28,22,6,4.5,19.89,5.29,25-1.37.62-.82,1.46-1.78,2.45-1.52.82,1.46.21,3.31-.62,4.77-2.71,4.8-7.51,8.18-12.7,10-7.59,2.68-16.72,4-23.46-1a22,22,0,0,1-8.9-16.74c-1.05-19.62,14.7-34.05,32.81-38,11.65-2.53,23.79-1.55,35.54.5,19.19,3.34,37.39,12,43.22,31.75l2,6.72A42.92,42.92,0,0,1,1787.55,1196.24Z"/>
            <path class="cls-61"
                  d="M1519.46,1172.71a108.9,108.9,0,0,0-11.26-26.15c-37.83-2-75.82-2.28-113.39-2.92q-6.07-.11-12.15-.17c1.8,4.47,3.64,9,5.68,13.58,14.68,35.23,7.83,76.33,4.89,114.49a105.22,105.22,0,0,1-1.89,12.48l6.25-.24c35.26-1.28,70.5-3.19,105.72-5.26,5.37-.31,10.74-.65,16.11-1C1527.25,1243.39,1527.92,1207.54,1519.46,1172.71Z"/>
            <ellipse class="cls-17" cx="1279.38" cy="1215.28" rx="12.3" ry="71.92"/>
            <ellipse class="cls-62" cx="1239.02" cy="1215.23" rx="4.99" ry="25.37"/>
            <path class="cls-63"
                  d="M1197.47,1188.19a72.14,72.14,0,0,0-13,4.25c-16.62,7.36-33.11,18.41-39.56,35.41-3.06,8.08-3.59,16.87-4.84,25.43-2.39,15.9-1.18,31.59-16.19,39.82-17.76,9.74-36.66,17.83-54.88,26.7-3.94,1.91-8.23,4.22-9.68,8.35-1.17,3.36-.12,7.07,1.29,10.33a47.67,47.67,0,0,0,23.44,24c20.65,9.55,48.6-3,70.51-.78,14.27,1.42,27.65,7.26,41.4,11.33a169.72,169.72,0,0,0,77.65,4.27c3.64-.66,7.57-1.61,9.86-4.52,3.42-4.32,1.36-11.13-2.88-14.65s-9.94-4.62-15.37-5.59l-41.51-7.44c-12.55-2.25-22.75-7.11-19.62-21.54,1.11-5.15,5.61-8.92,5.64-14.56,0-6.89-4.84-10.86-8.16-16.38-4.63-7.68,1.36-24.35,3.46-32.37,5.43-20.77,21.82-23.83,39.9-28.11,3.09-.73,6.29-1.85,8.26-4.34,6.75-8.54,2.59-26.08-5.62-32.5C1234.75,1185.22,1214.34,1184.3,1197.47,1188.19Z"/>
            <path class="cls-1" d="M1273,1190h-33c6.35,15.72,5.58,32.74,0,50.63h31.62A72.91,72.91,0,0,0,1273,1190Z"/>
            <path class="cls-17" d="M1239,1189.86c6.37,15.53,6.93,32.32,0,50.73h10.86a84.2,84.2,0,0,0,0-50.73Z"/>
            <path class="cls-64"
                  d="M1382.63,980.85c-1.9,51.16.74,103.51,7.27,158h-12.25a1310.74,1310.74,0,0,1-28.33-163.94Z"/>
            <path class="cls-65"
                  d="M1400.58,981.62c7.34,72.34,29.21,108.61,84.72,57.74,2-6.95,1.71-12.54-6.4-15.2-36,29.68-47,19.32-51.26-42.54Z"/>
            <path class="cls-66"
                  d="M1476.2,1025.17c8.37,3.51,11.5,7,9.1,13.4,9.38,11.73,17.15,14.66,23.74,11-4.92-14.06-11.77-27-22.7-37.5C1480.72,1015.79,1473.92,1021.66,1476.2,1025.17Z"/>
            <path class="cls-67"
                  d="M1348.85,925.23c-8,21-14.84,40.66-16.14,54.1,22.85,18.24,64.35,20.06,113.44,15.19,1.1-16.54-.23-34.21-3.33-52.68Z"/>
            <path class="cls-68"
                  d="M1389.67,1126.35c-3.56,3.38-8.05,4.74-14.32,2.25-17.19.88-26.06,5.85-26,15.19,12.89,4,27.21,2.91,42,0C1395,1139.66,1392.84,1133.22,1389.67,1126.35Z"/>
            <path class="cls-69"
                  d="M1451.66,724.12c-.55-1.45-1.14-2.87-1.79-4.29-16.23-35.36-67.93-54.27-93.43-17.1-2.76,4-4.5,8.66-6.22,13.24-11,29.3-38.45,84.31-2.77,105.82,13.64,8.23,25.78,15.39,37,27.32,13.62,14.55,24.63,31.29,36,47.65,6.94,10,14.35,20.13,24.86,26.24,23.27,13.53,54.75,2,71.62-19,4.57-5.68,8.46-12.21,9.36-19.44a33.86,33.86,0,0,0-1.59-14.25c-8.86-28.39-40.92-43.09-54.88-69.36C1457.38,777.58,1461.05,748.67,1451.66,724.12Z"/>
            <path class="cls-70"
                  d="M1262.81,813.65c28.56,6.6,63.87,2.56,107.76-15l2,40.16c-41.17,11.78-79.79,11.12-113.77-12.11Z"/>
            <path class="cls-71"
                  d="M1355,807.7c5.44-10.06,23.31-11.41,33.16-11.81,14.47-.6,26.3.84,35.87,13.16a73.37,73.37,0,0,1,4.31,6.42c5.59,9,7.43,22.37,10.38,32.55,5.84,20.14,11.59,40.32,16.82,60.62.77,3,9.84,30.71,6.25,32.72-8.07,28-94.5,18.8-121.5-13.76C1343.67,880.11,1346.3,829,1355,807.7Z"/>
            <path class="cls-72" d="M1369.26,774.77,1375,807c12.91,7.58,23.61,4.34,32.28-6.17l-5.7-34.65Z"/>
            <path class="cls-73"
                  d="M1423.62,742.25c1.41,1.76,4.52,4.71,4.65,7.09a19.07,19.07,0,0,1-3.78,12.47,8,8,0,0,1-3.9,3.07c-1.34.39-2.78.2-4.15.46-4.54.86-7.12,6-10.27,8.92-3.85,3.54-7.53,6.79-12.36,9-10,4.62-21.21,3.79-29.85-3.28-10.34-8.46-15.11-22.57-15.11-35.61,0-16,7.35-33.7,22.14-40.59,15.07-7,33.5,2.65,40.3,16.77,2.36,4.89,3.94,10.18,6.91,14.73C1419.79,737.72,1421.78,740,1423.62,742.25Z"/>
            <path class="cls-74"
                  d="M1374.12,725.31c.59,1.4,2.93,2.16,4.93,2.29,7.69.51,13.48-4.23,20.65-5.47,3.73-.65,3.34,2,4.3,4.58,1.44,3.87,4.85,3.78,8.2,5.2,2.06.87,3.53,2.72,4.83,4.55,3.87,5.45-.54,10.2-.91,16a1,1,0,0,0,0,.53c.31.8,6.48-2.88,7.63-3.53,3-1.69,5.65-4,6.75-7.38a13.09,13.09,0,0,0-.16-7.76c-3.2-10.81-11.51-21.59-19.88-28.93-8.18-7.18-18.56-9.87-29.43-9.38-6.43.29-13.14,1.9-18.55,5.51-4.06,2.72-11.85,10.64-7.17,15.75,5.22,5.7,16,2.19,22.46,1.38-.07,1.49-1.44,2.52-2.5,3.57C1374,723.46,1373.78,724.49,1374.12,725.31Z"/>
            <path class="cls-75"
                  d="M1105.7,713.08c-.94,9.49-4.64,17.95-14.44,22.14-26,11.13-68.56-12-88-28.57-26.13-22.27-49.64-51.49-56.43-85.91-2.41-12.22-2.64-24.75-2.86-37.2-.42-23.52-5.82-47.59,2.6-70.27,4.47,12.48,10.29,24.71,19.15,34.58,17.54,19.54,48.66,24.95,71.87,35.29,7.39,3.3,14.73,6.91,21.09,11.91,7.27,5.71,13.07,13.09,18.17,20.8a174.87,174.87,0,0,1,26.81,69.57C1104.9,693.62,1106.61,703.84,1105.7,713.08Z"/>
            <path class="cls-76"
                  d="M1103.62,685.42a176.21,176.21,0,0,0-15.5-49.7c.38,16.85,1.89,33.79,2.41,50.41-10.51,0-15.36-14.55-20.21-22.64.81,9.7,8.08,18.59,4.85,28.29-12.13-10.5-22.63-22.63-32.33-34.75,2.42,17,12.93,30.71,21,46.07.81,1.62,0,3.23,0,4.85a141.53,141.53,0,0,1-47.69-36.37c1.62,10.5,12.13,18.59,11.32,29.9-.81.81-2.43.81-4.05.81-17.7-7.58-34.13-18.33-50.88-27.5a212.39,212.39,0,0,0,30.67,31.86c19.48,16.62,62,39.7,88,28.57,9.8-4.19,13.5-12.65,14.44-22.14C1106.61,703.84,1104.9,693.62,1103.62,685.42Z"/>
            <path class="cls-77"
                  d="M938.15,571.33c-1.63-17.4-1.93-36.91,5.07-53.28a6,6,0,0,1,1.95-2.76c2-1.34,4.88,0,6.2,2s1.59,4.52,2.15,6.87c2.13,9.05,8.77,16.37,16,22.17,9.17,7.31,19,13.69,28.24,21,3.67,2.89,7.74,7.48,5.51,11.57-2,3.74-7.95,3.78-10.08,7.47-1.91,3.31.22,8-1.92,11.15-1.55,2.3-4.71,2.82-7.48,2.62s-5.57-.9-8.26-.24a3,3,0,0,0-1.89,1.13,3.7,3.7,0,0,0-.2,2.61c1.15,6.71.54,13.33-7.18,14.4-8.34,1.17-9.42,3.91-13.51,11.56a12.76,12.76,0,0,0-1.47,3.52,16.94,16.94,0,0,0,.24,5.4,30.16,30.16,0,0,1-.63,10.71c-.5,2.05-5.26,5.13-6.57,2.25a4.86,4.86,0,0,1,0-3c1.43-7.14,3.62-13.54,2.51-20.9-1-6.95-3.47-13.59-5.51-20.28-1.76-5.76-.36-9.75-.72-15.52C940.22,584.9,938.8,578.16,938.15,571.33Z"/>
            <path class="cls-78"
                  d="M941.19,665.66q-.78,1.46-1.59,2.88a22.82,22.82,0,0,0-2.4,5.22c-.83,3.12-.27,10.59,2.57,12.47a10,10,0,0,0,4.72,2c7.32.39,8.88-7,8-12.68a29,29,0,0,0-2-6.22c-.7-1.75-3.16-10.91-4.88-11.27-1.92-.4-2.18,3.21-2.75,4.32S941.76,664.59,941.19,665.66Z"/>
            <path class="cls-79"
                  d="M1081.64,740.72c-3.86-21.64-4.88-25.48,19.82-30.57,198.43,101.71,379.72,241.71,568.65,391.09,10.51,8.09.81,23.45-12.93,13.25C1433,993.47,1226.33,883,1081.64,740.72Z"/>
            <path class="cls-80"
                  d="M1162.4,742.42q-30.23-16.93-60.94-32.71c-24.7,5.09-23.68,8.93-19.82,30.57q20.68,20.36,43,39.88C1141.29,773.48,1155,759.45,1162.4,742.42Z"/>
            <path class="cls-81"
                  d="M1282,902.88c-.25,3.7,6.16,7,8.85,8.44,7.47,4.09,16.42,5.83,24.62,5.93l3.49,0c6.14.08,11.46-2,17.38-3.58a6.55,6.55,0,0,0,3.38-1.66c1.7-1.93-1.1-6-2.08-7.73a3.22,3.22,0,0,0-1-1.21,3,3,0,0,0-1.49-.32c-3.85-.13-7.21,1.18-11.05,1.28l-6.28.18a24.15,24.15,0,0,1-5.24-.24c-4.26-.83-7.94-3.93-12.27-4.13a1.2,1.2,0,0,0-.5,0,.93.93,0,0,0-.27,1.34,3.56,3.56,0,0,0,1.22.94,3.81,3.81,0,0,1,2.09,3.1,105.06,105.06,0,0,0-23-3.47,29.8,29.8,0,0,0,4,4.52Z"/>
            <path class="cls-82"
                  d="M1327.64,902.74c27.41-12,53.74-36.88,78.69-78,20.92-14.94,27,3,21.06,30.93-26.32,34.72-52.79,58.28-94.94,60.09C1333.74,910.44,1332.19,906.07,1327.64,902.74Z"/>
        </g>
    </g>
</svg>
