<svg xmlns="http://www.w3.org/2000/svg" xmlns:xlink="http://www.w3.org/1999/xlink" viewBox="0 0 2077.22 1248.15">
    <defs>
        <style>
            .cls-1{fill:#91b3fa;}.cls-19,.cls-2,.cls-20,.cls-74{fill:#fff;}.cls-2{opacity:0.57;}.cls-3{fill:#bdd0fb;}.cls-4{fill:url(#linear-gradient);}.cls-5{fill:url(#linear-gradient-2);}.cls-6{fill:url(#linear-gradient-3);}.cls-7{fill:url(#linear-gradient-4);}.cls-8{fill:url(#linear-gradient-5);}.cls-9{fill:url(#linear-gradient-6);}.cls-10{fill:url(#linear-gradient-7);}.cls-11{fill:url(#linear-gradient-8);}.cls-12{fill:url(#linear-gradient-9);}.cls-13{fill:url(#linear-gradient-10);}.cls-14{fill:url(#linear-gradient-11);}.cls-15{fill:url(#linear-gradient-12);}.cls-16,.cls-70{fill:#7d97f4;}.cls-17{fill:url(#linear-gradient-13);}.cls-18{fill:url(#linear-gradient-14);}.cls-20{opacity:0.49;}.cls-21{fill:url(#linear-gradient-15);}.cls-22{fill:url(#linear-gradient-16);}.cls-23{fill:url(#linear-gradient-17);}.cls-24{fill:url(#linear-gradient-18);}.cls-25{fill:url(#linear-gradient-19);}.cls-26{fill:url(#linear-gradient-20);}.cls-27{fill:url(#linear-gradient-21);}.cls-28{fill:url(#linear-gradient-22);}.cls-29{fill:url(#linear-gradient-23);}.cls-30{fill:url(#linear-gradient-24);}.cls-31{fill:url(#linear-gradient-25);}.cls-32{fill:url(#linear-gradient-26);}.cls-33{fill:url(#linear-gradient-27);}.cls-34{fill:url(#linear-gradient-28);}.cls-35{fill:url(#linear-gradient-29);}.cls-36{fill:url(#linear-gradient-30);}.cls-37{fill:url(#linear-gradient-31);}.cls-38{fill:url(#linear-gradient-32);}.cls-39{fill:url(#linear-gradient-33);}.cls-40{fill:url(#linear-gradient-34);}.cls-41{fill:url(#linear-gradient-35);}.cls-42{fill:url(#linear-gradient-36);}.cls-43{fill:url(#linear-gradient-37);}.cls-44{fill:url(#linear-gradient-38);}.cls-45{fill:url(#linear-gradient-39);}.cls-46{fill:url(#linear-gradient-40);}.cls-47{fill:url(#linear-gradient-41);}.cls-48{fill:url(#linear-gradient-42);}.cls-49{fill:url(#linear-gradient-43);}.cls-50{fill:url(#linear-gradient-44);}.cls-51{fill:url(#linear-gradient-45);}.cls-52{fill:url(#linear-gradient-46);}.cls-53{fill:url(#linear-gradient-47);}.cls-54{fill:url(#linear-gradient-48);}.cls-55,.cls-56,.cls-57,.cls-58,.cls-59,.cls-60,.cls-61,.cls-62,.cls-63,.cls-64,.cls-65,.cls-66,.cls-67,.cls-68,.cls-69,.cls-70,.cls-71,.cls-72{fill-rule:evenodd;}.cls-55{fill:url(#linear-gradient-49);}.cls-56{fill:url(#linear-gradient-50);}.cls-57{fill:url(#linear-gradient-51);}.cls-58{fill:url(#linear-gradient-52);}.cls-59{fill:url(#linear-gradient-53);}.cls-60{fill:url(#linear-gradient-54);}.cls-61{fill:url(#linear-gradient-55);}.cls-62{fill:url(#linear-gradient-56);}.cls-63{fill:url(#linear-gradient-57);}.cls-64{fill:url(#linear-gradient-58);}.cls-65{fill:url(#linear-gradient-59);}.cls-66{fill:url(#linear-gradient-60);}.cls-67{fill:url(#linear-gradient-61);}.cls-68{fill:url(#linear-gradient-62);}.cls-69{fill:url(#linear-gradient-63);}.cls-71{fill:url(#linear-gradient-64);}.cls-72{fill:url(#linear-gradient-65);}.cls-73{fill:url(#linear-gradient-66);}.cls-74{opacity:0.22;}.cls-75{fill:url(#linear-gradient-67);}.cls-76{fill:url(#linear-gradient-68);}.cls-77{fill:url(#linear-gradient-69);}.cls-78{fill:url(#linear-gradient-70);}.cls-79{fill:url(#linear-gradient-71);}.cls-80{fill:url(#linear-gradient-72);}.cls-81{fill:url(#linear-gradient-73);}.cls-82{fill:url(#linear-gradient-74);}.cls-83{fill:url(#linear-gradient-75);}.cls-84{fill:url(#linear-gradient-76);}.cls-85{fill:url(#linear-gradient-77);}.cls-86{fill:url(#linear-gradient-78);}.cls-87{fill:url(#linear-gradient-79);}.cls-88{fill:url(#linear-gradient-80);}.cls-89{fill:url(#linear-gradient-81);}.cls-90{fill:url(#linear-gradient-82);}.cls-91{fill:url(#linear-gradient-83);}.cls-92{fill:url(#linear-gradient-84);}.cls-93{fill:url(#linear-gradient-85);}.cls-94{fill:url(#linear-gradient-86);}.cls-95{fill:url(#linear-gradient-87);}
        </style>
        <linearGradient id="linear-gradient" x1="1435.85" y1="693.22" x2="1231.85" y2="1249.22"
                        gradientUnits="userSpaceOnUse">
            <stop offset="0" stop-color="#ff928e"/>
            <stop offset="1" stop-color="#feb3b1"/>
        </linearGradient>
        <linearGradient id="linear-gradient-2" x1="1191.21" y1="19.94" x2="747.21" y2="583.94"
                        gradientTransform="translate(150.26 -393.59) rotate(22.5)" xlink:href="#linear-gradient"/>
        <linearGradient id="linear-gradient-3" x1="550.38" y1="981.06" x2="295.87" y2="1356.13"
                        gradientUnits="userSpaceOnUse">
            <stop offset="0" stop-color="#09005d"/>
            <stop offset="1" stop-color="#1a0f91"/>
        </linearGradient>
        <linearGradient id="linear-gradient-4" x1="456.37" y1="476.01" x2="567.36" y2="476.01"
                        xlink:href="#linear-gradient-3"/>
        <linearGradient id="linear-gradient-5" x1="530.87" y1="487.37" x2="449.88" y2="239.88"
                        gradientUnits="userSpaceOnUse">
            <stop offset="0" stop-color="#4042e2"/>
            <stop offset="1" stop-color="#4f52ff"/>
        </linearGradient>
        <linearGradient id="linear-gradient-6" x1="338.15" y1="355.84" x2="603.38" y2="240.65"
                        xlink:href="#linear-gradient-5"/>
        <linearGradient id="linear-gradient-7" x1="395.81" y1="186.26" x2="446.71" y2="-145.94"
                        xlink:href="#linear-gradient-3"/>
        <linearGradient id="linear-gradient-8" x1="187.69" y1="595.95" x2="580.73" y2="595.95"
                        xlink:href="#linear-gradient-3"/>
        <linearGradient id="linear-gradient-9" x1="313.62" y1="1134.8" x2="463.65" y2="866.9"
                        xlink:href="#linear-gradient-5"/>
        <linearGradient id="linear-gradient-10" x1="473.83" y1="799.33" x2="216.64" y2="1150.28"
                        xlink:href="#linear-gradient-3"/>
        <linearGradient id="linear-gradient-11" x1="588.78" y1="1004.22" x2="575.68" y2="835.14"
                        xlink:href="#linear-gradient-3"/>
        <linearGradient id="linear-gradient-12" x1="564.65" y1="863.55" x2="577.75" y2="701.61"
                        xlink:href="#linear-gradient-3"/>
        <linearGradient id="linear-gradient-13" x1="332.81" y1="317.1" x2="470.85" y2="317.1"
                        xlink:href="#linear-gradient-5"/>
        <linearGradient id="linear-gradient-14" x1="355.35" y1="321.33" x2="448.32" y2="321.33"
                        gradientTransform="translate(495.53 -184.58) rotate(61.85)" xlink:href="#linear-gradient-3"/>
        <linearGradient id="linear-gradient-15" x1="911.43" y1="1013.66" x2="-4.32" y2="2412.54"
                        gradientUnits="userSpaceOnUse">
            <stop offset="0" stop-color="#fe7062"/>
            <stop offset="1" stop-color="#ff928e"/>
        </linearGradient>
        <linearGradient id="linear-gradient-16" x1="679.64" y1="1041.31" x2="562.51" y2="1430.23"
                        xlink:href="#linear-gradient"/>
        <linearGradient id="linear-gradient-17" x1="568.69" y1="1043.9" x2="451.56" y2="1432.83"
                        xlink:href="#linear-gradient"/>
        <linearGradient id="linear-gradient-18" x1="2554.67" y1="-596.08" x2="2482.67" y2="-0.08"
                        gradientTransform="matrix(-0.89, -0.49, -0.49, 0.88, 2211.42, 5705.22)"
                        xlink:href="#linear-gradient-15"/>
        <linearGradient id="linear-gradient-19" x1="1778.28" y1="-324.89" x2="1702.28" y2="55.11"
                        xlink:href="#linear-gradient"/>
        <linearGradient id="linear-gradient-20" x1="2559.48" y1="-595.49" x2="2487.48" y2="0.51"
                        gradientTransform="matrix(-0.89, -0.49, -0.49, 0.88, 2211.42, 5705.22)"
                        xlink:href="#linear-gradient-15"/>
        <linearGradient id="linear-gradient-21" x1="1784.72" y1="-323.6" x2="1708.72" y2="56.4"
                        xlink:href="#linear-gradient"/>
        <linearGradient id="linear-gradient-22" x1="2559.16" y1="-595.5" x2="2487.16" y2="0.51"
                        gradientTransform="matrix(-0.89, -0.49, -0.49, 0.88, 2211.42, 5705.22)"
                        xlink:href="#linear-gradient-15"/>
        <linearGradient id="linear-gradient-23" x1="1793.8" y1="-321.79" x2="1717.8" y2="58.21"
                        xlink:href="#linear-gradient"/>
        <linearGradient id="linear-gradient-24" x1="2547.67" y1="-596.9" x2="2475.67" y2="-0.9"
                        gradientTransform="matrix(-0.89, -0.49, -0.49, 0.88, 2211.42, 5705.22)"
                        xlink:href="#linear-gradient-15"/>
        <linearGradient id="linear-gradient-25" x1="1814.25" y1="-317.7" x2="1738.25" y2="62.3"
                        xlink:href="#linear-gradient"/>
        <linearGradient id="linear-gradient-26" x1="2538.24" y1="-598.05" x2="2466.24" y2="-2.05"
                        gradientTransform="matrix(-0.89, -0.49, -0.49, 0.88, 2211.42, 5705.22)"
                        xlink:href="#linear-gradient-15"/>
        <linearGradient id="linear-gradient-27" x1="1832.03" y1="-314.14" x2="1756.03" y2="65.86"
                        xlink:href="#linear-gradient"/>
        <linearGradient id="linear-gradient-28" x1="2526.25" y1="-599.49" x2="2454.25" y2="-3.49"
                        gradientTransform="matrix(-0.89, -0.49, -0.49, 0.88, 2211.42, 5705.22)"
                        xlink:href="#linear-gradient-15"/>
        <linearGradient id="linear-gradient-29" x1="1852.74" y1="-310" x2="1776.74" y2="70"
                        xlink:href="#linear-gradient"/>
        <linearGradient id="linear-gradient-30" x1="2516.22" y1="-600.7" x2="2444.22" y2="-4.7"
                        gradientTransform="matrix(-0.89, -0.49, -0.49, 0.88, 2211.42, 5705.22)"
                        xlink:href="#linear-gradient-15"/>
        <linearGradient id="linear-gradient-31" x1="1871.77" y1="-306.19" x2="1795.77" y2="73.81"
                        xlink:href="#linear-gradient"/>
        <linearGradient id="linear-gradient-32" x1="2509.28" y1="-601.54" x2="2437.28" y2="-5.53"
                        gradientTransform="matrix(-0.89, -0.49, -0.49, 0.88, 2211.42, 5705.22)"
                        xlink:href="#linear-gradient-15"/>
        <linearGradient id="linear-gradient-33" x1="1886.71" y1="-303.2" x2="1810.71" y2="76.8"
                        xlink:href="#linear-gradient"/>
        <linearGradient id="linear-gradient-34" x1="2557.38" y1="-595.75" x2="2485.38" y2="0.26"
                        gradientTransform="matrix(-0.89, -0.49, -0.49, 0.88, 2211.42, 5705.22)"
                        xlink:href="#linear-gradient-15"/>
        <linearGradient id="linear-gradient-35" x1="1761.11" y1="-328.32" x2="1685.11" y2="51.68"
                        xlink:href="#linear-gradient"/>
        <linearGradient id="linear-gradient-36" x1="2568" y1="-594.46" x2="2496" y2="1.54"
                        gradientTransform="matrix(-0.89, -0.49, -0.49, 0.88, 2211.42, 5705.22)"
                        xlink:href="#linear-gradient-15"/>
        <linearGradient id="linear-gradient-37" x1="1742.76" y1="-331.99" x2="1666.76" y2="48.01"
                        xlink:href="#linear-gradient"/>
        <linearGradient id="linear-gradient-38" x1="2581.2" y1="-592.85" x2="2509.2" y2="3.15"
                        gradientTransform="matrix(-0.89, -0.49, -0.49, 0.88, 2211.42, 5705.22)"
                        xlink:href="#linear-gradient-15"/>
        <linearGradient id="linear-gradient-39" x1="1721.22" y1="-336.3" x2="1645.22" y2="43.7"
                        xlink:href="#linear-gradient"/>
        <linearGradient id="linear-gradient-40" x1="-1545.6" y1="-1136.17" x2="-1617.61" y2="-540.16"
                        gradientTransform="matrix(-0.84, -0.54, -0.54, 0.84, 16.22, -66.59)"
                        xlink:href="#linear-gradient-15"/>
        <linearGradient id="linear-gradient-41" x1="1701.59" y1="-340.23" x2="1625.59" y2="39.77"
                        xlink:href="#linear-gradient"/>
        <linearGradient id="linear-gradient-42" x1="2591.74" y1="-591.54" x2="2519.74" y2="4.47"
                        gradientTransform="matrix(-0.89, -0.49, -0.49, 0.88, 2211.42, 5705.22)"
                        xlink:href="#linear-gradient-15"/>
        <linearGradient id="linear-gradient-43" x1="1692.42" y1="-342.07" x2="1616.42" y2="37.93"
                        xlink:href="#linear-gradient"/>
        <linearGradient id="linear-gradient-44" x1="2596.11" y1="-591.09" x2="2524.11" y2="4.91"
                        gradientTransform="matrix(-0.89, -0.49, -0.49, 0.88, 2211.42, 5705.22)"
                        xlink:href="#linear-gradient-15"/>
        <linearGradient id="linear-gradient-45" x1="1677.57" y1="-345.04" x2="1601.57" y2="34.97"
                        xlink:href="#linear-gradient"/>
        <linearGradient id="linear-gradient-46" x1="2562.07" y1="-595.19" x2="2490.07" y2="0.81"
                        gradientTransform="matrix(-0.89, -0.49, -0.49, 0.88, 2211.42, 5705.22)"
                        xlink:href="#linear-gradient-15"/>
        <linearGradient id="linear-gradient-47" x1="1773.42" y1="-325.86" x2="1697.42" y2="54.14"
                        xlink:href="#linear-gradient"/>
        <linearGradient id="linear-gradient-48" x1="-1229.06" y1="891.26" x2="-1170.48" y2="1024.54"
                        gradientTransform="translate(2827.25 -305.94) rotate(-12.16)" xlink:href="#linear-gradient"/>
        <linearGradient id="linear-gradient-49" x1="1874.12" y1="743.7" x2="1806.12" y2="693.7"
                        gradientUnits="userSpaceOnUse">
            <stop offset="0" stop-color="#e1473d"/>
            <stop offset="1" stop-color="#e9605a"/>
        </linearGradient>
        <linearGradient id="linear-gradient-50" x1="1994.02" y1="768.98" x2="2073.02" y2="703.98"
                        xlink:href="#linear-gradient-49"/>
        <linearGradient id="linear-gradient-51" x1="-2409.33" y1="386.32" x2="-2458.23" y2="460.57"
                        gradientTransform="matrix(-0.98, -0.18, -0.18, 0.98, -421.18, -111.08)"
                        xlink:href="#linear-gradient-49"/>
        <linearGradient id="linear-gradient-52" x1="-1782.59" y1="1214.77" x2="-1730.43" y2="1214.77"
                        gradientTransform="matrix(-1, 0, 0, 1, 105.05, 0)" xlink:href="#linear-gradient-5"/>
        <linearGradient id="linear-gradient-53" x1="-1848.62" y1="1231.69" x2="-1819.6" y2="1231.69"
                        gradientTransform="matrix(-1, 0, 0, 1, 105.05, 0)" xlink:href="#linear-gradient-5"/>
        <linearGradient id="linear-gradient-54" x1="1915.94" y1="866.26" x2="1910.94" y2="1019.26"
                        xlink:href="#linear-gradient"/>
        <linearGradient id="linear-gradient-55" x1="-1864.86" y1="1138.43" x2="-1821.81" y2="1138.43"
                        gradientTransform="matrix(-1, 0, 0, 1, 105.05, 0)" xlink:href="#linear-gradient"/>
        <linearGradient id="linear-gradient-56" x1="-1814.4" y1="1134.21" x2="-1763.83" y2="1134.21"
                        gradientTransform="matrix(-1, 0, 0, 1, 105.05, 0)" xlink:href="#linear-gradient"/>
        <linearGradient id="linear-gradient-57" x1="-1893.56" y1="972.36" x2="-2112.55" y2="1188.35"
                        gradientTransform="matrix(-1, 0, 0, 1, 105.05, 0)" xlink:href="#linear-gradient-15"/>
        <linearGradient id="linear-gradient-58" x1="-2098.38" y1="1267.51" x2="-2317.37" y2="1483.5"
                        gradientTransform="matrix(-0.99, 0.1, 0.1, 0.99, -227.3, 29.96)"
                        xlink:href="#linear-gradient-15"/>
        <linearGradient id="linear-gradient-59" x1="-1785.35" y1="872.67" x2="-1801.95" y2="908.73"
                        gradientTransform="matrix(-1, 0, 0, 1, 105.05, 0)" gradientUnits="userSpaceOnUse">
            <stop offset="0" stop-color="#fdf53f"/>
            <stop offset="1" stop-color="#d93c65"/>
        </linearGradient>
        <linearGradient id="linear-gradient-60" x1="1924.15" y1="752.41" x2="1886.15" y2="835.41"
                        xlink:href="#linear-gradient"/>
        <linearGradient id="linear-gradient-61" x1="1889.99" y1="736.77" x2="1851.99" y2="819.77"
                        xlink:href="#linear-gradient"/>
        <linearGradient id="linear-gradient-62" x1="1962.19" y1="769.83" x2="1924.19" y2="852.83"
                        xlink:href="#linear-gradient"/>
        <linearGradient id="linear-gradient-63" x1="-2409.7" y1="386.08" x2="-2458.6" y2="460.33"
                        gradientTransform="matrix(-0.98, -0.18, -0.18, 0.98, -421.18, -111.08)"
                        xlink:href="#linear-gradient-49"/>
        <linearGradient id="linear-gradient-64" x1="1860.89" y1="927.85" x2="1913.16" y2="856.03"
                        xlink:href="#linear-gradient-5"/>
        <linearGradient id="linear-gradient-65" x1="1903.74" y1="922.91" x2="1953.03" y2="855.19"
                        xlink:href="#linear-gradient-5"/>
        <linearGradient id="linear-gradient-66" x1="-1973.3" y1="29.09" x2="-1509.8" y2="29.09"
                        gradientTransform="matrix(-0.93, -0.36, -0.36, 0.93, 270, 235.65)"
                        xlink:href="#linear-gradient-3"/>
        <linearGradient id="linear-gradient-67" x1="-1986.53" y1="861.17" x2="-1515.83" y2="861.17"
                        gradientTransform="matrix(-0.97, 0.24, 0.24, 0.97, -337.97, 125.73)"
                        xlink:href="#linear-gradient-3"/>
        <linearGradient id="linear-gradient-68" x1="1964.71" y1="996.88" x2="1991.37" y2="996.88"
                        xlink:href="#linear-gradient"/>
        <linearGradient id="linear-gradient-69" x1="1781.49" y1="813.85" x2="1804.7" y2="813.85"
                        xlink:href="#linear-gradient"/>
        <linearGradient id="linear-gradient-70" x1="-1768.37" y1="1161.83" x2="-2058.15" y2="1477.02"
                        gradientTransform="translate(2978.86)" xlink:href="#linear-gradient-3"/>
        <linearGradient id="linear-gradient-71" x1="-1862.43" y1="1185.24" x2="-1836.69" y2="1185.24"
                        gradientTransform="translate(2978.86)" xlink:href="#linear-gradient"/>
        <linearGradient id="linear-gradient-72" x1="-1745.56" y1="805.38" x2="-1992.13" y2="1139.57"
                        gradientTransform="translate(2978.86)" xlink:href="#linear-gradient-3"/>
        <linearGradient id="linear-gradient-73" x1="-1833.38" y1="1102.07" x2="-2123.15" y2="1417.26"
                        gradientTransform="translate(2978.86)" xlink:href="#linear-gradient-3"/>
        <linearGradient id="linear-gradient-74" x1="-1955.19" y1="1183.92" x2="-1932.97" y2="1183.92"
                        gradientTransform="translate(2978.86)" xlink:href="#linear-gradient"/>
        <linearGradient id="linear-gradient-75" x1="-1789.5" y1="772.96" x2="-2036.07" y2="1107.15"
                        gradientTransform="translate(2978.86)" xlink:href="#linear-gradient-3"/>
        <linearGradient id="linear-gradient-76" x1="-1978.89" y1="680.29" x2="-1756.19" y2="680.29"
                        gradientTransform="translate(2978.86)" xlink:href="#linear-gradient-3"/>
        <linearGradient id="linear-gradient-77" x1="1475.83" y1="307.38" x2="1395.83" y2="382.38"
                        xlink:href="#linear-gradient"/>
        <linearGradient id="linear-gradient-78" x1="1456.62" y1="336.99" x2="1348.62" y2="427.99"
                        xlink:href="#linear-gradient"/>
        <linearGradient id="linear-gradient-79" x1="-1916.48" y1="522.1" x2="-1850.68" y2="522.1"
                        gradientTransform="translate(2978.86)" xlink:href="#linear-gradient"/>
        <linearGradient id="linear-gradient-80" x1="-1858.07" y1="642.5" x2="-1744.7" y2="560.91"
                        gradientTransform="translate(2978.86)" gradientUnits="userSpaceOnUse">
            <stop offset="0" stop-color="#9cfffb"/>
            <stop offset="1" stop-color="#9bfffa"/>
        </linearGradient>
        <linearGradient id="linear-gradient-81" x1="1550.79" y1="364.73" x2="1312.79" y2="546.73"
                        xlink:href="#linear-gradient-3"/>
        <linearGradient id="linear-gradient-82" x1="-1770.13" y1="519.66" x2="-1789.62" y2="605.24"
                        gradientTransform="translate(2978.86)" xlink:href="#linear-gradient-5"/>
        <linearGradient id="linear-gradient-83" x1="-1780.33" y1="555.56" x2="-1789.65" y2="611.48"
                        gradientTransform="translate(2978.86)" xlink:href="#linear-gradient-5"/>
        <linearGradient id="linear-gradient-84" x1="1154.52" y1="607.35" x2="1084.52" y2="722.35"
                        xlink:href="#linear-gradient"/>
        <linearGradient id="linear-gradient-85" x1="-2264.1" y1="-2798.19" x2="-2355.38" y2="-2677.44"
                        gradientTransform="translate(4593.43 1375.65) rotate(-35.75)" xlink:href="#linear-gradient"/>
        <linearGradient id="linear-gradient-86" x1="-2333.81" y1="-2769.19" x2="-2224.78" y2="-2769.19"
                        gradientTransform="translate(4593.43 1375.65) rotate(-35.75)" xlink:href="#linear-gradient-3"/>
        <linearGradient id="linear-gradient-87" x1="-2397.79" y1="-2702.56" x2="-2324.58" y2="-2777.68"
                        gradientTransform="translate(4593.43 1375.65) rotate(-35.75)" xlink:href="#linear-gradient"/>
    </defs>
    <g id="Слой_2" data-name="Слой 2">
        <g id="Illustration">
            <path class="cls-1"
                  d="M575.31,679.8c-28.35-89.21-83.14-160.37-148-202.26-58-37.45-99.8-95.68-115.31-162.88q-2.44-10.61-5.82-21.24c-34.1-107.29-127.48-173.37-208.58-147.6S-21.61,279.47,12.5,386.76A263.47,263.47,0,0,0,40.24,447c36.13,57.61,50.3,126.66,37.06,193.39C65.47,700,68.73,767.17,90,834.05,121.7,933.8,186.46,1011,261.41,1049.93a261.32,261.32,0,0,1,75.1,58.39c35.2,39.69,84.77,58.41,130.3,43.94,49.11-15.61,79.77-65.48,81.94-123.72,1.23-33,8.93-65.25,21.5-95.77C599.92,860.73,604,770,575.31,679.8Z"/>
            <path class="cls-2"
                  d="M162.26,250.94c33.13,67.54,64.06,136.09,94.28,205,7.56,17.22,14.84,34.55,22.18,51.86l11,26,10.79,26.06c7.12,17.4,14.49,34.71,21.42,52.19l20.79,52.45c13.41,35.14,27.12,70.16,39.88,105.55,6.4,17.68,13.15,35.24,19.19,53l18.38,53.35c23.78,71.38,45.78,143.39,64.1,216.37l-3.14.82-15.78-54.08L461.44,1026l-4.25-13.42-8.55-26.84-8.51-26.84c-2.81-9-6-17.81-8.93-26.71-6.06-17.77-12-35.59-18.14-53.32-25.14-70.78-51.22-141.21-78.75-211.11-14-34.84-27.76-69.8-42-104.54l-10.64-26.09-10.85-26c-7.22-17.33-14.45-34.67-21.85-51.93q-21.75-52-44.29-103.64-22.29-51.76-45.33-103.2Z"/>
            <path class="cls-3"
                  d="M912.33,760.42c-2.77-74.74-35.73-141-86.32-186.78-45.22-40.91-69.29-94.52-65.79-149.62a174.58,174.58,0,0,0,.23-17.6c-3.33-89.89-74.56-160.23-159.1-157.09S451,327.88,454.33,417.78A172,172,0,0,0,464.43,470c18.82,52,13.53,108.21-17.31,157a265.54,265.54,0,0,0-40.69,152.19c3.1,83.58,43.95,156.57,105,202.14,23.08,17.23,42.12,37.79,55.85,60.61a125.93,125.93,0,0,0,224.6-17.72c10.16-25.19,26.33-48.54,46.66-69.5C886.51,905.22,915.14,836,912.33,760.42Z"/>
            <path class="cls-2"
                  d="M634.5,343.86c13.25,59,24.12,118.34,34.22,177.77,2.53,14.85,4.77,29.75,7.06,44.63l3.44,22.33,3.21,22.35c2.06,14.91,4.38,29.8,6.24,44.73l5.56,44.79c3.24,29.91,6.79,59.79,9.34,89.76,1.29,15,3,29.93,3.88,44.93l3,45c3.27,60,4.66,120.18,2.26,180.32l-3.22,0-.33-45-.06-11.25-.4-11.25-.86-22.49L707,948c-.25-7.5-.85-15-1.25-22.47-.95-15-1.74-30-2.8-44.93-4.73-59.85-10.44-119.63-17.7-179.29-3.91-29.8-7.5-59.64-11.67-89.42l-3-22.34-3.28-22.32c-2.18-14.88-4.35-29.76-6.72-44.62Q654,477.93,646.5,433.39c-4.79-29.72-9.93-59.41-15.18-89.06Z"/>
            <rect class="cls-1" x="1583.92" y="986.03" width="95.35" height="3.56"
                  transform="translate(-74.02 1841.48) rotate(-57.78)"/>
            <polygon class="cls-1"
                     points="1765.18 1109.92 1657.02 1109.92 1657.02 1106.36 1763.07 1106.36 1806.63 1027.29 1809.75 1029.01 1765.18 1109.92"/>
            <circle class="cls-1" cx="1656.68" cy="947.82" r="15.59"/>
            <path class="cls-1" d="M1779.38,1108.48a15.6,15.6,0,1,1-15.59-15.59A15.59,15.59,0,0,1,1779.38,1108.48Z"/>
            <circle class="cls-1" cx="1808.53" cy="1028.49" r="20.34"/>
            <path class="cls-1"
                  d="M1609.26,1185.16H1500.13l-52-81.76,51.92-82.39,109.19-6.91,45,89.33Zm-107.18-3.56h105.08l43.1-78.24-43.11-85.56-105,6.64-49.75,79Z"/>
            <circle class="cls-1" cx="1607.87" cy="1023.06" r="16.95"/>
            <path class="cls-1" d="M1510.93,1183.72a10.17,10.17,0,1,1-10.16-10.17A10.16,10.16,0,0,1,1510.93,1183.72Z"/>
            <path class="cls-1" d="M1623.46,1183.72a15.59,15.59,0,1,1-15.59-15.59A15.59,15.59,0,0,1,1623.46,1183.72Z"/>
            <circle class="cls-1" cx="1652.61" cy="1103.73" r="20.34" transform="translate(-2.04 3.06) rotate(-0.11)"/>
            <path class="cls-1"
                  d="M1452.62,1105.17H1343.53l-52-81.76L1343.49,941l109.16-6.91,48.47,91.39Zm-107.13-3.56h105.13l46.4-76.23-46.44-87.58-105,6.65-49.75,78.95Z"/>
            <path class="cls-4" d="M1359.76,943.07a15.59,15.59,0,1,1-15.59-15.59A15.59,15.59,0,0,1,1359.76,943.07Z"/>
            <circle class="cls-1" cx="1451.28" cy="943.07" r="16.95"/>
            <path class="cls-1" d="M1354.34,1103.73a10.17,10.17,0,1,1-10.17-10.17A10.17,10.17,0,0,1,1354.34,1103.73Z"/>
            <circle class="cls-1" cx="1451.28" cy="1103.73" r="15.59"
                    transform="translate(-355.39 1349.49) rotate(-45)"/>
            <path class="cls-1" d="M1294,1008.15a15.59,15.59,0,1,1-15.59,15.59A15.59,15.59,0,0,1,1294,1008.15Z"/>
            <circle class="cls-1" cx="1496.02" cy="1023.74" r="20.34"/>
            <rect class="cls-1" x="1212.61" y="228.89" width="106.48" height="3.97"
                  transform="translate(395.59 1178.68) rotate(-57.78)"/>
            <polygon class="cls-1"
                     points="1415.01 367.23 1294.23 367.23 1294.23 363.25 1412.66 363.25 1461.3 274.96 1464.78 276.87 1415.01 367.23"/>
            <path class="cls-1" d="M1311.27,186.21a17.41,17.41,0,1,1-17.41-17.41A17.41,17.41,0,0,1,1311.27,186.21Z"/>
            <path class="cls-1" d="M1430.87,365.62a17.41,17.41,0,1,1-17.41-17.41A17.41,17.41,0,0,1,1430.87,365.62Z"/>
            <circle class="cls-1" cx="1463.42" cy="276.29" r="22.71" transform="translate(5.66 581.06) rotate(-22.5)"/>
            <path class="cls-1"
                  d="M1240.91,451.25H1119l-58-91.31,58-92,121.93-7.72L1291.18,360Zm-119.69-4h117.34l48.13-87.38-48.14-95.55-117.28,7.43-55.56,88.15Z"/>
            <circle class="cls-1" cx="1239.35" cy="270.24" r="18.92"/>
            <path class="cls-1" d="M1131.11,449.64a11.36,11.36,0,1,1-11.36-11.35A11.37,11.37,0,0,1,1131.11,449.64Z"/>
            <path class="cls-1" d="M1256.76,449.64a17.41,17.41,0,1,1-17.41-17.41A17.4,17.4,0,0,1,1256.76,449.64Z"/>
            <circle class="cls-1" cx="1289.32" cy="360.32" r="22.71"
                    transform="translate(-48.29 305.86) rotate(-13.28)"/>
            <path class="cls-1"
                  d="M1066,361.93H944.18l-58-91.31,58-92L1066,170.9l54.12,102Zm-119.63-4h117.39l51.82-85.13L1063.72,175l-117.31,7.42-55.57,88.16Z"/>
            <path class="cls-1" d="M962.3,180.91a17.41,17.41,0,1,1-17.41-17.41A17.41,17.41,0,0,1,962.3,180.91Z"/>
            <circle class="cls-5" cx="1064.49" cy="180.91" r="18.92" transform="translate(11.8 421.14) rotate(-22.5)"/>
            <path class="cls-1" d="M956.24,360.32A11.36,11.36,0,1,1,944.89,349,11.35,11.35,0,0,1,956.24,360.32Z"/>
            <path class="cls-1" d="M1081.9,360.32a17.41,17.41,0,1,1-17.41-17.41A17.41,17.41,0,0,1,1081.9,360.32Z"/>
            <path class="cls-1" d="M888.87,253.58A17.41,17.41,0,1,1,871.46,271,17.41,17.41,0,0,1,888.87,253.58Z"/>
            <path class="cls-1" d="M1114.45,248.28A22.71,22.71,0,1,1,1091.74,271,22.71,22.71,0,0,1,1114.45,248.28Z"/>
            <path class="cls-6"
                  d="M761,1175.73c-197.22,27.31-401,27.62-612.09-2a42.92,42.92,0,0,1-35.41-54l11.79-42.17a32.56,32.56,0,0,1,28.84-23.69c207.39-15.83,410-22.91,598.85-4.94A34.53,34.53,0,0,1,781.6,1070l16.81,40.52A47.47,47.47,0,0,1,761,1175.73Z"/>
            <path class="cls-7"
                  d="M456.37,334.89l56.94,286a9.23,9.23,0,0,0,7.16,7.26c8.36,1.74,24.43,2.87,42.23-7.5a9.3,9.3,0,0,0,4.48-9.83L510.36,322.74Z"/>
            <path class="cls-8"
                  d="M403.56,148.57l88.17,442.9a14.31,14.31,0,0,0,11.09,11.23c12.95,2.7,37.83,4.45,65.4-11.61a14.4,14.4,0,0,0,6.93-15.22l-88-446.11Z"/>
            <path class="cls-9"
                  d="M365.21,42.42,470,554.92a19.28,19.28,0,0,0,14.95,15.13c17.45,3.65,51,6,88.15-15.65a19.4,19.4,0,0,0,9.35-20.51L477.9,17.07Z"/>
            <path class="cls-10"
                  d="M355.22,40.79l3.37,6.07a10.66,10.66,0,0,0,11.46,5.26l107.78-22a10.66,10.66,0,0,0,8.52-10.44v-9a10.67,10.67,0,0,0-13-10.4l-111.14,25A10.67,10.67,0,0,0,355.22,40.79Z"/>
            <path class="cls-1"
                  d="M386.26,134.42l112.86-22.85,8.7.72a11.56,11.56,0,0,1,9.52,6.67h0a18.75,18.75,0,0,1-5.75,13.51l-7,6.74L391.76,162.06,377,156.37a9,9,0,0,1-4.86-4.41h0a9.18,9.18,0,0,1,4-12.28Z"/>
            <path class="cls-11"
                  d="M397.61,356.55l-15-127.1a17.84,17.84,0,0,1,14.47-19.62l119.74-22.18a16.09,16.09,0,0,1,18.78,13L580.73,458s-73.25,31-166.22,31c0,0-16.9-36.63-42.26-33.81S268,491.77,282.1,649.54s126.77,138,126.77,138l47.9,216.93S213,962.14,189.13,691.8C174.37,524.91,276.73,418.41,317,383.37a74.33,74.33,0,0,1,33-16.48Z"/>
            <path class="cls-12"
                  d="M280.6,1047l43.48-163.57a51.32,51.32,0,0,1,49.59-38.13h25.62a50.4,50.4,0,0,1,48.86,38l41.43,163.85a16.6,16.6,0,0,1-16.1,20.67H296.64A16.6,16.6,0,0,1,280.6,1047Z"/>
            <path class="cls-13" d="M427.19,913a36.63,36.63,0,1,1-36.63-36.62A36.63,36.63,0,0,1,427.19,913Z"/>
            <path class="cls-14"
                  d="M741.16,769.27C708.26,742.4,645,724.2,572.28,724.2s-136,18.2-168.89,45.07h-24.1v42.26c0,48.23,86.4,87.34,193,87.34s193-39.11,193-87.34V769.27Z"/>
            <ellipse class="cls-15" cx="572.28" cy="769.27" rx="192.98" ry="87.34"/>
            <ellipse class="cls-16" cx="572.28" cy="767.86" rx="161.99" ry="66.21"/>
            <path class="cls-1"
                  d="M572.28,712.93c84.81,0,154.36,26.64,161.36,60.57a27.46,27.46,0,0,0,.63-5.64c0-36.56-72.53-66.2-162-66.2s-162,29.64-162,66.2a27.46,27.46,0,0,0,.63,5.64C417.91,739.57,487.46,712.93,572.28,712.93Z"/>
            <ellipse class="cls-17" cx="401.83" cy="317.1" rx="69.02" ry="64.8"/>
            <circle class="cls-18" cx="401.83" cy="321.33" r="46.48"
                    transform="translate(-71.08 523.99) rotate(-61.85)"/>
            <path class="cls-19"
                  d="M648.55,1108.55a4,4,0,0,1-.72-8c11.07-2,22.1-4.3,32.77-6.74a4,4,0,1,1,1.79,7.82c-10.78,2.47-21.92,4.76-33.11,6.81A3.61,3.61,0,0,1,648.55,1108.55Z"/>
            <path class="cls-1"
                  d="M468,1123.85c-172.2,0-316.08-36-317.92-36.49a4,4,0,0,1,2-7.78c2.33.59,235.59,59,463,26.35a4,4,0,0,1,1.14,8C566.23,1121,516,1123.85,468,1123.85Z"/>
            <path class="cls-1"
                  d="M559.14,438.23a4,4,0,0,1-3.95-3.35l-3.44-20.48a4,4,0,0,1,7.92-1.34l3.44,20.49a4,4,0,0,1-3.3,4.63A5,5,0,0,1,559.14,438.23Z"/>
            <path class="cls-1"
                  d="M550.06,384.15a4,4,0,0,1-3.95-3.34L517.18,208.58a4,4,0,0,0-4.49-3.31l-11.94,1.62a4,4,0,1,1-1.09-7.95l11.94-1.63a12,12,0,0,1,13.5,9.94L554,379.47a4,4,0,0,1-3.3,4.63A5,5,0,0,1,550.06,384.15Z"/>
            <path class="cls-1"
                  d="M852.09,835.93l-.17-104.86H756.46l.17,98.54a246.18,246.18,0,0,1-48.46,146.67L582.43,1145.8a51.37,51.37,0,0,0-10.12,30.61v.08a51.39,51.39,0,0,0,51.4,51.39H986a51.39,51.39,0,0,0,51.39-51.39h0a51.42,51.42,0,0,0-10.2-30.73L897,971.09A226,226,0,0,1,852.09,835.93Z"/>
            <path class="cls-20"
                  d="M623.71,1215a38.6,38.6,0,0,1-31-61.58L718.49,983.94a260.8,260.8,0,0,0,51-154.33l-.15-85.69h69.76l.15,92a240.42,240.42,0,0,0,47.41,142.81l130.28,174.67A38.54,38.54,0,0,1,986,1215Z"/>
            <path class="cls-16"
                  d="M854.77,749.92h-101A14.78,14.78,0,0,1,739,735.14h0a14.77,14.77,0,0,1,14-14.75L854,715a14.77,14.77,0,0,1,15.57,14.75v5.43A14.78,14.78,0,0,1,854.77,749.92Z"/>
            <path class="cls-21"
                  d="M592.75,1153.45a38.6,38.6,0,0,0,31,61.58H986a38.54,38.54,0,0,0,30.89-61.59l-58.18-78H650.62Z"/>
            <path class="cls-16"
                  d="M655.12,1227.86h0a36.39,36.39,0,0,1-36.39-36.39V931.05h80.74l-8,260.42A36.39,36.39,0,0,1,655.12,1227.86Z"/>
            <path class="cls-20"
                  d="M655.12,1219.33a27.89,27.89,0,0,1-27.86-27.86V931.05h63.42L683,1191.33v.14A27.89,27.89,0,0,1,655.12,1219.33Z"/>
            <path class="cls-16"
                  d="M699.44,937.3H617.62a12,12,0,0,1-12-12h0a12,12,0,0,1,11.33-12L698.8,909a12,12,0,0,1,12.61,11.95v4.4A12,12,0,0,1,699.44,937.3Z"/>
            <path class="cls-22" d="M627.26,1049.88v141.59a27.86,27.86,0,1,0,55.72,0v-.14l4.18-141.45Z"/>
            <path class="cls-16"
                  d="M544.17,1230.45h0a36.39,36.39,0,0,1-36.39-36.39V933.64h80.74l-8,260.42A36.39,36.39,0,0,1,544.17,1230.45Z"/>
            <path class="cls-20"
                  d="M544.17,1221.92a27.89,27.89,0,0,1-27.86-27.86V933.64h63.42L572,1193.93v.13A27.89,27.89,0,0,1,544.17,1221.92Z"/>
            <path class="cls-16"
                  d="M588.49,939.9H506.67a12,12,0,0,1-12-12h0A12,12,0,0,1,506,916l81.82-4.4a12,12,0,0,1,12.61,12v4.4A12,12,0,0,1,588.49,939.9Z"/>
            <path class="cls-23" d="M516.31,1052.48v141.58a27.86,27.86,0,0,0,55.72,0v-.13l4.18-141.45Z"/>
            <path class="cls-24"
                  d="M1772.91,158.22c-10.09,1.12-20,2.93-30,5s-19.78,4.45-29.52,7.3a377.61,377.61,0,0,0-57.3,21.28q-13.89,6.61-27.23,14.55A277.79,277.79,0,0,0,1603.22,224c-16.35,13-31.28,28.47-42.71,46.8l-2.16,3.41-1.94,3.56c-1.27,2.4-2.63,4.72-3.81,7.19-2.2,5.07-4.64,10.1-6.19,15.39l-1.31,3.93-.65,2-.49,2-1.93,8c-.67,2.68-1,5.37-1.43,8.07s-.91,5.39-1.07,8.09c-2.12,21.6-.68,43,2.86,63.69a486.42,486.42,0,0,0,14.69,60.49c6.09,19.65,13,38.87,20.09,57.87,14.31,37.93,29.95,75,42.44,111.95,3.11,9.23,5.9,18.44,8.26,27.57l1.71,6.85,1.42,6.78c.51,2.23.91,4.55,1.3,6.87s.86,4.64,1.14,6.95c2.77,18.48,3.47,36.86.94,54.19a130.11,130.11,0,0,1-6.35,25,118.76,118.76,0,0,1-11.36,22.75c-9.12,14.46-22,27-36.6,38.3-7.41,5.55-15.26,10.8-23.42,15.76l-6.22,3.64c-2.06,1.23-4.16,2.44-6.31,3.55l-6.4,3.51c-2.14,1.15-4.34,2.22-6.52,3.34-4.34,2.3-8.78,4.44-13.25,6.59s-9,4.18-13.49,6.41l-13.72,6.28c-4.6,2.08-9.24,4.1-13.85,6.37h0a1,1,0,0,0-.46,1.4,1.05,1.05,0,0,0,1,.59c5.15-.11,10.27-.42,15.42-.76,5.1-.51,10.24-1,15.34-1.68a293.25,293.25,0,0,0,30.47-5.73,271.33,271.33,0,0,0,30-9.19,226,226,0,0,0,29-13.53,180.72,180.72,0,0,0,27-18.73c2.1-1.84,4.15-3.74,6.23-5.62l5.92-6a131,131,0,0,0,10.85-13.16c13.55-18.5,22-40.86,25.13-63.12s2-44.4-1.25-65.52c-.35-2.66-.88-5.26-1.33-7.89s-.92-5.24-1.54-7.9l-1.79-7.92-2-7.74c-2.81-10.26-6-20.24-9.45-30-6.85-19.55-14.45-38.47-22.26-57.11L1610,501.93c-7.59-18.41-14.87-36.82-21.29-55.35a464.66,464.66,0,0,1-16.1-55.87c-4.08-18.71-6.32-37.54-5.45-55.88,0-2.32.33-4.56.55-6.82s.34-4.57.77-6.77l1.18-6.66.29-1.67.44-1.62.87-3.24c1-4.41,2.72-8.48,4.19-12.7.85-2.09,1.91-4.15,2.85-6.23l1.44-3.13,1.67-3a149.64,149.64,0,0,1,15.4-23.2A202.66,202.66,0,0,1,1616.21,239a259.59,259.59,0,0,1,22.37-18.29c7.91-5.61,16.1-10.94,24.57-15.87s17.21-9.49,26.09-13.85,18-8.29,27.21-12a466.14,466.14,0,0,1,56.82-18.81h0A1,1,0,0,0,1774,159,1,1,0,0,0,1772.91,158.22Z"/>
            <path class="cls-25"
                  d="M1474.11,879.66a3.59,3.59,0,0,1,1.65-4.86c3.61-1.79,7.28-3.43,10.83-5l16.73-7.64c2-1,4-1.91,6-2.84,2.46-1.13,5-2.29,7.5-3.58l.16-.08c4.31-2.07,8.75-4.21,13-6.47l2.38-1.21c1.37-.69,2.75-1.39,4.08-2.1l6.46-3.55c2.3-1.19,4.51-2.48,6.19-3.48l6.18-3.62c8.3-5.05,16.12-10.3,23.19-15.59,16-12.37,27.83-24.69,36-37.68a115.33,115.33,0,0,0,11.1-22.24,125.64,125.64,0,0,0,6.21-24.46c2.32-15.84,2-33.82-.94-53.51-.18-1.5-.45-3-.73-4.56-.13-.76-.27-1.52-.39-2.27-.36-2.12-.77-4.52-1.29-6.78l-1.39-6.68-1.7-6.82c-2.27-8.74-5-18-8.21-27.4-8.1-23.93-17.74-48.49-27.06-72.25-5.08-12.93-10.33-26.31-15.35-39.62-5.85-15.62-13.42-36.32-20.15-58a489,489,0,0,1-14.77-60.8c-3.88-22.66-4.85-44.32-2.88-64.27.13-2.25.48-4.47.82-6.61l.28-1.78q.23-1.31.42-2.61c.28-1.83.57-3.72,1-5.61l2.43-10,2-6a103.8,103.8,0,0,1,4.94-12.59c.46-1,.91-2.06,1.4-3.17.81-1.7,1.71-3.33,2.57-4.91.43-.79.87-1.58,1.31-2.4l2-3.7,2.15-3.41c10.72-17.18,25.28-33.14,43.31-47.46a277.56,277.56,0,0,1,25.95-17.83c9.1-5.4,18.33-10.33,27.43-14.66a379.89,379.89,0,0,1,57.68-21.43c9.43-2.75,19.15-5.15,29.72-7.35,12-2.49,21.31-4,30.2-5a3.62,3.62,0,0,1,3.88,2.65,3.6,3.6,0,0,1-2.61,4.4,460.06,460.06,0,0,0-56.5,18.7c-9.27,3.72-18.38,7.73-27,11.91-8.51,4.18-17.24,8.82-25.92,13.76-8.12,4.73-16.32,10-24.35,15.73A253.92,253.92,0,0,0,1618,240.88c-6.15,5.92-13.22,12.87-19.17,20.46-6.89,8.83-11.56,15.86-15.18,22.88l-1.62,2.93-1.4,3c-.35.78-.73,1.57-1.1,2.35-.62,1.31-1.2,2.54-1.66,3.67s-.82,2.29-1.24,3.42a67.26,67.26,0,0,0-2.9,9.1l-1.28,4.75-1.46,8.27a38.12,38.12,0,0,0-.48,3.95c-.08.88-.15,1.77-.26,2.58,0,.56-.11,1.12-.17,1.68a43.43,43.43,0,0,0-.36,5c-.8,16.85,1,34.92,5.39,55.23a463,463,0,0,0,16,55.57c5.54,16,12.09,33,21.24,55.19l23.18,55.52c9.49,22.65,16.38,40.3,22.32,57.25,3.69,10.48,6.8,20.35,9.5,30.2l2.07,7.83,1.78,7.9c.6,2.56,1,5.1,1.48,7.55l.09.5c.14.81.29,1.62.44,2.44.32,1.8.66,3.66.9,5.49,3.72,24.21,4.13,45.89,1.25,66.27-3.29,23.41-12.38,46.24-25.56,64.22a131.56,131.56,0,0,1-11.12,13.49l-6,6.14-1.87,1.7c-1.46,1.33-2.92,2.66-4.44,4a184,184,0,0,1-27.42,19,226.13,226.13,0,0,1-29.42,13.71,268.13,268.13,0,0,1-30.28,9.26,295.19,295.19,0,0,1-30.74,5.79c-4.35.6-8.75,1-13,1.44l-2.51.25c-5.75.38-10.59.66-15.55.77h-.06A3.65,3.65,0,0,1,1474.11,879.66Zm269.36-713.95c-10.44,2.17-20,4.54-29.33,7.26a374,374,0,0,0-56.91,21.13c-9,4.27-18,9.13-27,14.42A272.11,272.11,0,0,0,1604.82,226c-17.55,13.93-31.73,29.46-42.14,46.16l-2.08,3.27-1.93,3.53c-.43.82-.88,1.64-1.32,2.45-.87,1.58-1.69,3.07-2.4,4.56-.45,1-.92,2.09-1.38,3.13a97.66,97.66,0,0,0-4.73,12l-1.93,5.81-2.4,9.91c-.42,1.68-.68,3.37-1,5.16-.14.91-.28,1.82-.43,2.67l-.27,1.75a60.9,60.9,0,0,0-.78,6.21c-1.93,19.6-1,40.8,2.83,63a483.56,483.56,0,0,0,14.61,60.16c6.69,21.57,14.23,42.19,20,57.73,5,13.27,10.25,26.63,15.32,39.55,9.35,23.81,19,48.43,27.15,72.48,3.22,9.56,6,18.9,8.32,27.78l1.72,6.93,1.41,6.74c.54,2.35,1,4.83,1.34,7,.12.73.25,1.47.38,2.21.28,1.57.57,3.21.76,4.77,3,20.12,3.33,38.61.94,55a131.54,131.54,0,0,1-6.49,25.49,120.1,120.1,0,0,1-11.58,23.2c-8.5,13.48-20.67,26.23-37.24,39-7.23,5.42-15.18,10.76-23.66,15.91l-6.2,3.64c-1.73,1-4,2.37-6.39,3.59l-6.41,3.52c-1.4.75-2.81,1.47-4.23,2.18l-2.31,1.17c-4.33,2.3-8.82,4.46-13.17,6.55l-.1,0c-2.53,1.31-5.13,2.5-7.65,3.66-2,.9-3.93,1.8-6,2.8l-13.72,6.29-3.12,1.4-4,1.8c2.49-.12,5.07-.28,7.85-.47l2.44-.24c4.21-.41,8.57-.84,12.8-1.42a290.36,290.36,0,0,0,30.25-5.7,263.36,263.36,0,0,0,29.67-9.07A220.7,220.7,0,0,0,1596.4,846,178.2,178.2,0,0,0,1623,827.54c1.46-1.27,2.89-2.57,4.32-3.88l1.77-1.61,5.86-6a127.55,127.55,0,0,0,10.68-13c12.72-17.36,21.47-39.36,24.65-62,2.81-19.88,2.4-41.06-1.25-64.83-.23-1.76-.54-3.48-.87-5.3-.15-.83-.3-1.66-.44-2.47l-.09-.49c-.42-2.38-.86-4.85-1.43-7.29l-1.76-7.84-2-7.71c-2.66-9.71-5.73-19.47-9.39-29.83-5.91-16.85-12.76-34.42-22.21-57l-23.19-55.54c-9.19-22.27-15.77-39.38-21.35-55.47a467.43,467.43,0,0,1-16.19-56.17c-4.52-20.75-6.32-39.25-5.5-56.43a49.9,49.9,0,0,1,.39-5.45c.06-.54.12-1.08.18-1.69.1-.81.17-1.63.24-2.46a42.38,42.38,0,0,1,.55-4.44l1.47-8.32,1.33-5a70.45,70.45,0,0,1,3.07-9.67c.41-1.1.82-2.21,1.25-3.44s1.2-2.74,1.83-4.06c.35-.75.71-1.51,1.06-2.29l1.45-3.12,1.72-3.12c3.73-7.24,8.56-14.52,15.66-23.61,6.16-7.86,13.38-15,19.69-21a255.93,255.93,0,0,1,22.63-18.49c8.18-5.81,16.51-11.2,24.79-16,8.79-5,17.61-9.69,26.23-13.92,8.78-4.24,18-8.3,27.38-12.06,11.68-4.64,22.74-8.63,33.38-12Q1746.27,165.13,1743.47,165.71Zm29.73-5h0Z"/>
            <path class="cls-26"
                  d="M1570.93,457.66l.49.23,103.11,44a5.11,5.11,0,1,0,4-9.4l-103.12-44a5.11,5.11,0,0,0-4.47,9.17Z"/>
            <path class="cls-27"
                  d="M1673.53,504.22l-103.13-44c-.24-.11-.47-.22-.7-.35h0a7.68,7.68,0,0,1-3.38-9.73,7.53,7.53,0,0,1,4.17-4.1,7.72,7.72,0,0,1,5.93.06l103.12,44a7.74,7.74,0,0,1,4.1,10.08,7.7,7.7,0,0,1-10.1,4Zm-101.13-53.4a2.47,2.47,0,0,0-1.38,1.35,2.57,2.57,0,0,0,1.15,3.25l.25.12,103.12,44a2.57,2.57,0,0,0,3.38-1.33,2.61,2.61,0,0,0-1.4-3.37l-103.12-44a2.64,2.64,0,0,0-1-.21A2.5,2.5,0,0,0,1572.4,450.82Z"/>
            <path class="cls-28"
                  d="M1554.49,395.27l.35.18,172.74,79.45a5.11,5.11,0,1,0,4.25-9.29l-172.74-79.45a5.1,5.1,0,0,0-4.6,9.11Z"/>
            <path class="cls-29"
                  d="M1726.51,477.22l-172.75-79.45-.51-.26h0a7.73,7.73,0,0,1-3.3-9.93,7.63,7.63,0,0,1,4.29-4,7.74,7.74,0,0,1,5.92.23l172.75,79.46a7.74,7.74,0,0,1,3.81,10.19,7.63,7.63,0,0,1-4.29,4,7.77,7.77,0,0,1-2.68.48A7.65,7.65,0,0,1,1726.51,477.22ZM1556,388.4a2.51,2.51,0,0,0-1.42,1.31,2.59,2.59,0,0,0,1.12,3.32l172.93,79.54a2.58,2.58,0,0,0,2,.09,2.54,2.54,0,0,0,1.42-1.31,2.6,2.6,0,0,0-1.31-3.41L1558,388.48a2.66,2.66,0,0,0-1.1-.24A2.8,2.8,0,0,0,1556,388.4Z"/>
            <path class="cls-30"
                  d="M1786.41,457.16a5.11,5.11,0,1,0,5-8.93L1559.78,319.12h0a5.11,5.11,0,1,0-5,8.93l231.59,129.11Z"/>
            <path class="cls-31"
                  d="M1785.28,459.46,1553.55,330.28a8,8,0,0,1-3.77-4.63,7.5,7.5,0,0,1,.61-5.92,7.81,7.81,0,0,1,10.61-2.86L1792.62,446a8,8,0,0,1,3.77,4.63,7.47,7.47,0,0,1-.61,5.91,7.63,7.63,0,0,1-6.71,3.87A8,8,0,0,1,1785.28,459.46ZM1554.86,322.23a2.39,2.39,0,0,0-.19,1.91,2.94,2.94,0,0,0,1.38,1.67l231.49,129.05.11.06a2.67,2.67,0,0,0,3.66-.87,2.46,2.46,0,0,0,.19-1.92,2.89,2.89,0,0,0-1.38-1.66L1558.63,321.41l-.19-.1A2.66,2.66,0,0,0,1554.86,322.23Z"/>
            <path class="cls-32"
                  d="M1824.35,426.49a5.11,5.11,0,0,0,5-8.89L1574.84,270.12a5.11,5.11,0,1,0-5.13,8.83l254.54,147.49Z"/>
            <path class="cls-33"
                  d="M1823.11,428.74,1568.43,281.17a7.67,7.67,0,1,1,7.69-13.27l254.54,147.49a7.71,7.71,0,0,1,3.6,4.67,7.57,7.57,0,0,1-.76,5.83,7.76,7.76,0,0,1-10.39,2.85ZM1571.59,272.05a2.5,2.5,0,0,0-1.81,3.11,2.58,2.58,0,0,0,1.22,1.58l254.55,147.49,0,0a2.6,2.6,0,0,0,3.48-.93,2.5,2.5,0,0,0,.25-1.93,2.65,2.65,0,0,0-1.22-1.58l-254.56-147.5a2.52,2.52,0,0,0-1.3-.36A2.37,2.37,0,0,0,1571.59,272.05Z"/>
            <path class="cls-34"
                  d="M1598.18,244.14l.1.06,257.25,135.26a5.11,5.11,0,1,0,4.76-9L1603,235.15a5.11,5.11,0,1,0-4.85,9Z"/>
            <path class="cls-35"
                  d="M1854.34,381.73,1597.13,246.48l-.2-.1a7.73,7.73,0,0,1-3.11-10.3,7.55,7.55,0,0,1,4.53-3.75,7.69,7.69,0,0,1,5.87.56l257.26,135.26a7.71,7.71,0,0,1,3.26,10.38,7.55,7.55,0,0,1-4.53,3.75,7.73,7.73,0,0,1-5.87-.55Zm-254.49-144.5a2.45,2.45,0,0,0-1.5,1.23,2.59,2.59,0,0,0,1.07,3.44l-1.24,2.24,1.29-2.21L1856.72,377.2a2.66,2.66,0,0,0,2,.19,2.48,2.48,0,0,0,1.5-1.24,2.58,2.58,0,0,0-1.12-3.47L1601.84,237.42a2.58,2.58,0,0,0-1.23-.31A2.51,2.51,0,0,0,1599.85,237.23Z"/>
            <path class="cls-36"
                  d="M1642.68,210.89l.14.07,225,115.8a5.11,5.11,0,1,0,4.67-9.09l-225-115.79a5.11,5.11,0,0,0-4.81,9Z"/>
            <path class="cls-37"
                  d="M1866.67,329,1641.56,213.19l-.13-.07a7.64,7.64,0,0,1-3.14-10.23,7.56,7.56,0,0,1,4.46-3.78,7.69,7.69,0,0,1,5.91.49l225,115.81a7.67,7.67,0,0,1,3.34,10.34,7.59,7.59,0,0,1-4.5,3.79,7.72,7.72,0,0,1-5.87-.5ZM1644.32,204a2.52,2.52,0,0,0-1.48,1.25,2.57,2.57,0,0,0,1.08,3.42l-1.24,2.24,1.31-2.2,225,115.8a2.65,2.65,0,0,0,2,.17,2.49,2.49,0,0,0,1.48-1.25,2.55,2.55,0,0,0-1.15-3.46l-225-115.8a2.73,2.73,0,0,0-1.21-.29A2.66,2.66,0,0,0,1644.32,204Z"/>
            <path class="cls-38"
                  d="M1693.45,190.67l.33.17,170.06,78.6a5.11,5.11,0,0,0,4.31-9.26l-170.07-78.61a5.11,5.11,0,0,0-4.63,9.1Z"/>
            <path class="cls-39"
                  d="M1862.77,271.76l-170.07-78.6c-.16-.08-.33-.16-.48-.25h0a7.67,7.67,0,0,1,6.94-13.66l170.06,78.6a7.44,7.44,0,0,1,3.9,4.26,7.69,7.69,0,0,1-7.21,10.34A7.42,7.42,0,0,1,1862.77,271.76Zm-169.08-86.58a2.5,2.5,0,0,0,1,3.25l170.23,78.68a2.5,2.5,0,0,0,3.31-1.28,2.56,2.56,0,0,0,.09-2,2.4,2.4,0,0,0-1.24-1.37L1697,183.9a2.39,2.39,0,0,0-1-.22A2.57,2.57,0,0,0,1693.69,185.18Z"/>
            <path class="cls-40"
                  d="M1647.1,670.89a5.11,5.11,0,0,0,5.64-8.48l-151.1-118.55a5.11,5.11,0,1,0-6.33,8L1646.4,670.43A6,6,0,0,0,1647.1,670.89Z"/>
            <path class="cls-41"
                  d="M1645.87,673.13h0a7.31,7.31,0,0,1-1-.69L1493.73,553.89a7.64,7.64,0,0,1-2.91-5.17,7.54,7.54,0,0,1,1.59-5.62,7.7,7.7,0,0,1,10.81-1.26l151.1,118.56a7.65,7.65,0,0,1,2.9,5.16,7.55,7.55,0,0,1-1.58,5.63,7.67,7.67,0,0,1-9.77,1.94ZM1496.42,546.27a2.5,2.5,0,0,0-.52,1.85,2.55,2.55,0,0,0,1,1.74L1648,668.42a2.64,2.64,0,0,0,.35.23h0a2.58,2.58,0,0,0,3.28-.63,2.49,2.49,0,0,0,.52-1.86,2.6,2.6,0,0,0-1-1.74l-151.1-118.55a2.65,2.65,0,0,0-1.63-.57A2.54,2.54,0,0,0,1496.42,546.27Z"/>
            <path class="cls-42"
                  d="M1652.86,715.33a5.11,5.11,0,0,0,5.18-8.8L1442.68,571.9a5.11,5.11,0,1,0-5.42,8.66l215.36,134.63Z"/>
            <path class="cls-43"
                  d="M1651.62,717.57l0,0-.31-.19L1435.9,582.73a7.66,7.66,0,0,1-3.44-4.83,7.56,7.56,0,0,1,1-5.76,7.66,7.66,0,0,1,10.62-2.41L1659.4,704.36a7.69,7.69,0,0,1,3.44,4.83,7.52,7.52,0,0,1-1,5.76,7.7,7.7,0,0,1-10.25,2.62ZM1439.36,573.72a2.53,2.53,0,0,0-1.92,3,2.63,2.63,0,0,0,1.17,1.63l215.5,134.71a2.58,2.58,0,0,0,3.43-.86,2.55,2.55,0,0,0,.31-1.91,2.61,2.61,0,0,0-1.17-1.63L1441.31,574.06a2.59,2.59,0,0,0-1.39-.41A2.2,2.2,0,0,0,1439.36,573.72Z"/>
            <path class="cls-44"
                  d="M1646.77,762.93a5.11,5.11,0,1,0,5-8.9l-263.44-152.5a5.11,5.11,0,1,0-5.13,8.84l263.45,152.5Z"/>
            <path class="cls-45"
                  d="M1645.54,765.17,1382,612.59a7.66,7.66,0,0,1-3.59-4.67,7.64,7.64,0,0,1,5.44-9.41,7.66,7.66,0,0,1,5.84.81l263.45,152.5a7.67,7.67,0,0,1-7.55,13.35Zm2.47-4.49a2.59,2.59,0,0,0,3.49-.92,2.55,2.55,0,0,0,.24-1.93,2.58,2.58,0,0,0-1.22-1.58L1387.06,603.74a2.54,2.54,0,0,0-3.77,2.84,2.63,2.63,0,0,0,1.23,1.58L1648,760.67l-1.22,2.26,1.22-2.26Z"/>
            <path class="cls-46"
                  d="M1344.08,651.4a5.12,5.12,0,0,1,6.94-2.11c74.39,39.34,268.13,141.63,278.13,146.11a5.2,5.2,0,0,1,1.55.8,5.12,5.12,0,0,1,1,7.18c-2.62,3.46-5.87,1.83-9.63,0-2.09-1-5.12-2.6-9-4.58-7.68-4-18.61-9.65-31.71-16.51-23.17-12.12-55.43-29.07-95.89-50.39-69.67-36.71-139.28-73.53-139.28-73.53l-.08,0A5.12,5.12,0,0,1,1344.08,651.4Zm279.41,145.78a4.93,4.93,0,0,1,1-1A5.2,5.2,0,0,0,1623.49,797.18Zm3.63-2a5.28,5.28,0,0,1,1.63.11A5.13,5.13,0,0,0,1627.12,795.18Z"/>
            <path class="cls-47"
                  d="M1621,805.62c-2.09-1-5.14-2.6-9-4.6-7.67-4-18.61-9.65-31.72-16.51-23.39-12.23-55.65-29.19-95.89-50.39-68.88-36.3-138.59-73.16-139.26-73.52l-.17-.09a7.75,7.75,0,0,1-3.1-10.31,7.6,7.6,0,0,1,4.55-3.74,7.72,7.72,0,0,1,5.86.57c73.68,39,266.63,140.84,277.86,146a7.69,7.69,0,0,1,3.7,11.91,6.77,6.77,0,0,1-5.62,3C1625.64,808,1623.08,806.68,1621,805.62Zm7.21-7.83a2.53,2.53,0,0,0-.82-.06l0-.36-3.1-1.55,1.82,2.41,0,0a2.68,2.68,0,0,0-.44.45l-4.09-3.08a7.41,7.41,0,0,1,.74-.84c-34.83-17.78-204.37-107.29-272.36-143.24a2.61,2.61,0,0,0-2-.2,2.52,2.52,0,0,0-1.5,1.23,2.59,2.59,0,0,0,1.06,3.45l-1.23,2.24,1.28-2.22c.69.37,70.4,37.23,139.28,73.53,40.23,21.2,72.49,38.15,95.88,50.39,13.09,6.84,24,12.54,31.69,16.49,3.85,2,6.88,3.53,9,4.58,4.34,2.17,5.31,2.28,6.44.79a2.46,2.46,0,0,0,.48-1.87,2.58,2.58,0,0,0-1-1.73,2.62,2.62,0,0,0-.78-.4l-.19-.07Z"/>
            <path class="cls-48"
                  d="M1334.59,719.92a5.14,5.14,0,0,0,.47.23l265,113.78a5.11,5.11,0,1,0,4-9.39l-265-113.79a5.11,5.11,0,0,0-4.48,9.17Z"/>
            <path class="cls-49"
                  d="M1599,836.28,1334,722.5a7.67,7.67,0,1,1,6-14.1l265,113.78a7.74,7.74,0,0,1,4.08,10.1,7.59,7.59,0,0,1-4.19,4.08,7.61,7.61,0,0,1-5.92-.08Zm-263-123.21a2.52,2.52,0,0,0-1.39,1.35,2.57,2.57,0,0,0,1.15,3.25l0,0,.23.11,265,113.78a2.6,2.6,0,0,0,2,0,2.49,2.49,0,0,0,1.38-1.34,2.59,2.59,0,0,0-1.39-3.38l-265-113.79a2.72,2.72,0,0,0-1-.21A2.64,2.64,0,0,0,1336.06,713.07Z"/>
            <path class="cls-50"
                  d="M1336.29,797.9a5.32,5.32,0,0,0,1,.44l209.72,62.46a5.11,5.11,0,1,0,2.88-9.81L1340.2,788.53a5.1,5.1,0,0,0-3.91,9.37Z"/>
            <path class="cls-51"
                  d="M1546.32,863.25,1336.6,800.79a7.73,7.73,0,0,1-5.23-9.55,7.54,7.54,0,0,1,3.67-4.55,7.63,7.63,0,0,1,5.9-.61l209.72,62.46a7.73,7.73,0,0,1,5.23,9.55,7.6,7.6,0,0,1-3.67,4.55,7.66,7.66,0,0,1-5.9.61Zm-208.83-72.07a2.54,2.54,0,0,0-1.21,1.5,2.6,2.6,0,0,0,1.25,3h0a2.39,2.39,0,0,0,.52.22l209.72,62.46a2.55,2.55,0,0,0,2-.2,2.49,2.49,0,0,0,1.21-1.49,2.6,2.6,0,0,0-1.78-3.21L1339.47,791a2.78,2.78,0,0,0-.75-.11A2.64,2.64,0,0,0,1337.49,791.18Z"/>
            <path class="cls-52"
                  d="M1836.19,186.94a360.81,360.81,0,0,1,17.51,59.4c4,20,6.22,40.09,5.55,59.78a187.51,187.51,0,0,1-3.15,29.05,164.1,164.1,0,0,1-7.88,27.58,145.74,145.74,0,0,1-12.83,25.32A151,151,0,0,1,1818,410.63a190.49,190.49,0,0,1-45.65,35.78c-4.22,2.54-8.66,4.76-13,7.08-4.49,2.14-8.92,4.38-13.53,6.33-9.08,4.13-18.51,7.65-28,11-4.8,1.55-9.55,3.25-14.43,4.62l-7.28,2.17-7.51,2.12-30.13,8.42L1598,504.92c-40.28,11.47-80.76,23-120.39,38.44-19.79,7.69-39.38,16.39-58.12,27.1s-36.46,23.81-51.35,40a155,155,0,0,0-33,56.31c-6.78,20.73-9.24,42.33-9.28,63.57s2.48,42.33,6.09,63c1.86,10.35,4,20.64,6.52,30.82s5.19,20.32,8.1,30.38a1,1,0,0,0,1.28.71,1,1,0,0,0,.72-1.18c-4-20.49-7.33-41.06-9.56-61.66q-1.65-15.46-2.21-30.91t.37-30.75c1.21-20.35,4.77-40.47,12-58.95a140.4,140.4,0,0,1,31.92-49.11c13.95-13.91,30.71-25,48.45-34.42s36.72-17.13,56.08-23.93,39.17-12.69,59.11-18.37,40.07-11,60.26-16.2L1665.71,514q15.19-4,30.37-8.06l7.6-2.06,7.76-2.23c5.19-1.41,10.3-3.17,15.45-4.79,10.23-3.47,20.42-7.17,30.39-11.56,5-2.07,9.91-4.54,14.85-6.87,4.85-2.55,9.75-5,14.48-7.8,19.07-10.86,37.07-24.37,52.35-40.89a172.82,172.82,0,0,0,20.31-27A159,159,0,0,0,1873.53,372a172.67,172.67,0,0,0,8.34-66.06A222.93,222.93,0,0,0,1868,242.38,243.5,243.5,0,0,0,1854.89,213,196.9,196.9,0,0,0,1838,185.91a1,1,0,0,0-1.45-.21,1,1,0,0,0-.34,1.19Z"/>
            <path class="cls-53"
                  d="M1344.1,855.27c-3.41-11.8-6-21.49-8.12-30.47-2.39-9.62-4.54-19.75-6.57-31-4.29-24.66-6.24-44.83-6.12-63.48,0-24.1,3.12-45.15,9.4-64.37a158.19,158.19,0,0,1,33.58-57.25c14-15.17,31.47-28.78,52-40.46,17-9.7,35.55-18.37,58.46-27.27,40.25-15.63,81.11-27.26,120.63-38.51l60.42-16.79,37.6-10.52,7.31-2.18c3.33-.94,6.67-2.05,9.91-3.13,1.47-.5,3-1,4.37-1.45,7.79-2.73,18-6.44,27.86-10.92,3.31-1.41,6.61-3,9.8-4.54l3.53-1.7,3.3-1.74c3.2-1.67,6.51-3.41,9.66-5.3a187.64,187.64,0,0,0,45.05-35.31,149.29,149.29,0,0,0,17.1-22.19,144,144,0,0,0,12.59-24.87,159.64,159.64,0,0,0,7.75-27.14,184.26,184.26,0,0,0,3.11-28.65c.62-18.16-1.23-38.07-5.5-59.18a358.92,358.92,0,0,0-17.39-59v-.05a3.59,3.59,0,0,1,6.21-3.46,198,198,0,0,1,17.15,27.48,248.49,248.49,0,0,1,13.26,29.65,225.45,225.45,0,0,1,14,64.28,176.23,176.23,0,0,1-8.46,67,162.45,162.45,0,0,1-14.5,31.24,174.65,174.65,0,0,1-20.62,27.44c-14.56,15.75-32.38,29.67-52.93,41.36-3.73,2.22-7.61,4.23-11.35,6.18l-3.34,1.73c-1.3.61-2.59,1.24-3.88,1.86-3.6,1.73-7.31,3.51-11,5-11,4.86-22.15,8.78-30.65,11.67-1.51.47-3,.95-4.51,1.44-3.6,1.16-7.32,2.36-11,3.36l-7.79,2.24-7.6,2.06c-9.49,2.57-19.43,5.21-30.4,8.07l-60.67,15.78c-19.16,5-39.72,10.36-60.21,16.18-18.9,5.39-39.13,11.34-59,18.33-21.61,7.59-39.84,15.36-55.73,23.77-19.94,10.64-35.59,21.75-47.84,34a137.1,137.1,0,0,0-31.35,48.23C1345,689.47,1341,709,1339.72,730.92c-.57,9.86-.69,20.13-.37,30.5s1.13,20.82,2.2,30.73c2,18.91,5.16,39,9.53,61.46a3.62,3.62,0,0,1-2.56,4.13,3.51,3.51,0,0,1-1,.13A3.62,3.62,0,0,1,1344.1,855.27Zm512.11-609.44c4.35,21.5,6.23,41.82,5.6,60.38a191.31,191.31,0,0,1-3.2,29.46,164.47,164.47,0,0,1-8,28,149,149,0,0,1-13,25.76,154.33,154.33,0,0,1-17.66,22.92,193,193,0,0,1-46.22,36.25c-3.23,1.94-6.61,3.71-9.88,5.42-1.09.57-2.18,1.14-3.37,1.78l-3.6,1.72c-3.25,1.57-6.6,3.2-10,4.63-10,4.53-20.34,8.29-28.28,11.08l-4.39,1.45c-3.29,1.1-6.7,2.24-10.1,3.2l-7.32,2.18-37.64,10.53-60.41,16.78c-39.4,11.22-80.14,22.81-120.16,38.36-22.67,8.81-41,17.37-57.78,26.94-20,11.43-37.12,24.71-50.74,39.49a152.78,152.78,0,0,0-32.48,55.37c-6.11,18.7-9.11,39.24-9.15,62.8-.12,18.35,1.81,38.23,6,62.57,1.72,9.5,3.52,18.2,5.48,26.49-1.39-9.22-2.54-18.08-3.47-26.7-1.08-10-1.83-20.49-2.22-31.1s-.21-21,.37-31c1.33-22.42,5.44-42.52,12.21-59.72a142,142,0,0,1,32.5-50c12.61-12.58,28.66-24,49.06-34.88,16.12-8.52,34.58-16.4,56.43-24.07,20-7,40.28-13,59.26-18.42,20.54-5.84,41.13-11.24,60.32-16.22l60.68-15.78c10.94-2.85,20.87-5.48,30.34-8l7.56-2.05,7.79-2.24c3.61-1,7.28-2.16,10.82-3.3l4.49-1.44c8.35-2.83,19.32-6.7,30.24-11.51,3.63-1.49,7.28-3.25,10.81-4.94l3.82-1.83,3.26-1.7c3.68-1.91,7.49-3.88,11.14-6.05,20.13-11.46,37.54-25.05,51.73-40.4a170.09,170.09,0,0,0,20-26.6,157.46,157.46,0,0,0,14-30.24,171.11,171.11,0,0,0,8.2-65.09,220.24,220.24,0,0,0-13.7-62.82,243.61,243.61,0,0,0-13-29c-3.4-6.41-6.65-12-9.89-17A363.93,363.93,0,0,1,1856.21,245.83Z"/>
            <path class="cls-54"
                  d="M1788.66,781.4s35.89,96.71,90.48,84.84c0,0,5.63,32.91-3.56,36.79,0,0-81.89,2.37-90-110.09Z"/>
            <path class="cls-55"
                  d="M1878.62,741s17.33-15.65-5-32.63c-20.93-15.94-36.24,5.46-29.3,19.23a1.67,1.67,0,0,1-1.13,2.39c-1.83.4-3.41,2.22-.53,8.65a1.69,1.69,0,0,1-.19,1.69c-2.57,3.44-11.13,17.24,14.69,19.34a1.71,1.71,0,0,0,1.28-.43Z"/>
            <path class="cls-56"
                  d="M1969.66,764s1.67-20,12.36-26.49,31.45-12.05,40.14,9.67c4.15,10.36,2.78,15.29.2,17.61a6.49,6.49,0,0,0-1,8.18c1.76,3.14,2,7-3.32,10.56a6.73,6.73,0,0,0-3,4.31c-1.38,7.25-8.8,24.62-48.41,5.62Z"/>
            <path class="cls-57"
                  d="M1923.87,728c7.79-3.34,24.31-6.75,37.15,15.72a9.86,9.86,0,0,0,3.77,3.73c7.66,4.22,29.81,19.56,9.64,47.23a9.5,9.5,0,0,0-1.76,4.28c-.67,4.69-2.9,15.08-9.61,17.65a9.57,9.57,0,0,0-4.8,4c-4.51,7.43-17.37,23-39,6.73a9.69,9.69,0,0,0-3.71-1.72l-29.87-6.57a9.64,9.64,0,0,0-4.8.17c-3.65,1.07-11,2-13.77-6.59a9.85,9.85,0,0,0-3-4.5c-5-4.25-15.64-15.8-7.6-32a9.77,9.77,0,0,0,.92-5.85c-.94-6.06-1.43-19.52,11.14-25.33a9.28,9.28,0,0,0,4.43-4.14c4.2-8.07,17.87-28.76,42-13.59A9.59,9.59,0,0,0,1923.87,728Z"/>
            <path class="cls-58"
                  d="M1883.3,1202.69l4.35,5-3,10.91a7.71,7.71,0,0,1-6.05,5.54c-9.71,1.78-31.72,5-43,.12,0,0-3.52-23.6,35.5-16.57Z"/>
            <path class="cls-59"
                  d="M1951.35,1215.22l2.32,5.68-.94,20.46a6.34,6.34,0,0,1-5.58,5.77,74.43,74.43,0,0,1-16.31.87c-4.57-.35-7.43-4.65-5.64-8.48l6.88-14.75a9,9,0,0,1,5.22-4.7Z"/>
            <path class="cls-60" d="M1931.54,816.47l4.45,44s-23.93,8.12-39.68-1l4.26-44.19Z"/>
            <path class="cls-61" d="M1969.92,1057.41s-11.36,126.59-18.86,165.33c0,0-5.61,4.09-14-1.19l-10.2-168.94Z"/>
            <path class="cls-62" d="M1919.45,1065l-31.1,141.77s-8.47,8.78-19.47,0l5.36-149Z"/>
            <path class="cls-63" d="M1966.59,864.66s-41.23-15.28-92.7.53c0,0-5.77,39-2.8,57.52l88.69,3.21Z"/>
            <path class="cls-64"
                  d="M1872.3,934.89s-28.34,91-32.55,151.62a5.67,5.67,0,0,0,5.25,6c5.9.42,16.3,1.87,30.43,6.58,22.92,7.63,41.9,5.11,59,.19,13.44-3.86,47.07-7.23,60.92-8.51a5.64,5.64,0,0,0,5-6.62c-4-22.43-19.32-102.05-42.52-156.17Z"/>
            <path class="cls-65"
                  d="M1870.8,920.61l1.5,14.28s27.28.1,87.53-1.93l.32-10.32S1893.39,923.94,1870.8,920.61Z"/>
            <path class="cls-66"
                  d="M1871,773.8c-6.85,26.46-4.85,56.87,26.28,63.69,21.54,4.72,44.17-17.22,51-43.68s-4.87-46.62-26.22-52.14S1877.85,747.34,1871,773.8Z"/>
            <path class="cls-67" d="M1873.34,782s-1-16-9-11.06,3.08,24.11,8,25.23S1873.34,782,1873.34,782Z"/>
            <path class="cls-68" d="M1941.61,800.42s2.39-12.21,11-6.57-7.85,25.59-18,21.15Z"/>
            <path class="cls-69"
                  d="M1954.41,790.71s-24.76,26.8-37.62-28.81c0,0-12.84,16.61-18.69,1.92,0,0-25.56,8.76-28.38-2s34.54-39.89,64.59-19S1954.41,790.71,1954.41,790.71Z"/>
            <path class="cls-16"
                  d="M1823,834.55l-21.33-25.38-13.61,5.13a3.57,3.57,0,0,0-2.3,3.66c7,79.14,82,85.07,82,85.07l-40.46,185.14a6.88,6.88,0,0,0,5.78,8.28l44.62,6.15a9,9,0,0,0,10.2-8.66L1894.17,858C1843.06,867.87,1823,834.55,1823,834.55Z"/>
            <path class="cls-70"
                  d="M2003.56,1081.88,1967.8,933.31a34.32,34.32,0,0,1-.89-10.15l3.48-55.46a4.55,4.55,0,0,0-3.59-4.73l-31.3-6.64v237a9,9,0,0,0,10.61,8.83l50.36-9.35a9,9,0,0,0,7.09-10.93Z"/>
            <polygon class="cls-71" points="1897.88 843.08 1882.19 859.62 1892.43 923.48 1897.88 843.08"/>
            <polygon class="cls-72" points="1933.87 839.52 1935.99 920.61 1944.84 858.02 1933.87 839.52"/>
            <path class="cls-73"
                  d="M1719.49,702.77l346.36,300.57a33,33,0,0,1,1.54,48.41l-2.25,2.22a30.67,30.67,0,0,1-43.52-.45L1700.07,723.13Z"/>
            <ellipse class="cls-74" cx="1568.25" cy="543.83" rx="208.89" ry="212.73"
                     transform="translate(499.57 1813.91) rotate(-69.05)"/>
            <path class="cls-75"
                  d="M1347.19,459.19c-45.91,119.89,15.85,255,137.94,301.72s258.27-12.55,304.18-132.43-15.86-255-138-301.72S1393.09,339.3,1347.19,459.19Zm32.47,12.43c39.16-102.27,155.34-152.85,259.49-113S1796,513.77,1756.83,616,1601.49,768.9,1497.34,729,1340.5,573.9,1379.66,471.62Z"/>
            <path class="cls-3"
                  d="M1762.3,648.67l-.15-.07a1.31,1.31,0,0,1-.53-1.77c2.59-4.83,5-9.82,7.23-14.84a1.28,1.28,0,0,1,1.73-.67,1.32,1.32,0,0,1,.67,1.73c-2.24,5.07-4.7,10.13-7.33,15A1.31,1.31,0,0,1,1762.3,648.67ZM1784,587.39a1.32,1.32,0,0,1-.82-1.47,211.19,211.19,0,0,0,3.65-44.76C1784.63,452.82,1729,375,1645.18,342.91a221.3,221.3,0,0,0-121.92-10.68,1.31,1.31,0,0,1-.51-2.57,224.05,224.05,0,0,1,123.37,10.8c84.82,32.48,141.09,111.23,143.36,200.63a213.79,213.79,0,0,1-3.7,45.32,1.3,1.3,0,0,1-1.53,1A.79.79,0,0,1,1784,587.39Z"/>
            <path class="cls-3"
                  d="M2037.75,1052.94a1.29,1.29,0,0,1-.84-1.26,1.31,1.31,0,0,1,1.35-1.27c13,.43,21.46-3.7,25.17-12.28s1.33-19-6.06-25.75L2016.26,975a1.31,1.31,0,1,1,1.76-1.94l41.11,37.34c8.22,7.48,10.91,19,6.7,28.73s-13.49,14.32-27.65,13.86A1.5,1.5,0,0,1,2037.75,1052.94Z"/>
            <path class="cls-19"
                  d="M2004,963.78a1.3,1.3,0,0,1-.42-.25l-5.32-4.84a1.31,1.31,0,0,1,1.75-1.94l5.33,4.84a1.31,1.31,0,0,1-1.34,2.19Z"/>
            <path class="cls-16"
                  d="M1971.45,865.42a5.4,5.4,0,0,0-8.49,2.36c-2.32,6.48-5.23,18.36-6,38.28,64.89,31.25,21.42,78.52,21.42,78.52l13,10.86C2074,955.75,1993.78,883.58,1971.45,865.42Z"/>
            <path class="cls-76"
                  d="M1978.34,984.58s-7.38-.55-7.79,2.71-7.61,5.3-5.44,10.33,7.61,13.31,12,11.27,14.3-13.45,14.3-13.45Z"/>
            <path class="cls-77"
                  d="M1785.8,818.35s-8.26-10.2-1.92-15.64,7.25-3.26,12.32,4.53,12.91,17.35,5.37,20.18S1788.09,821.87,1785.8,818.35Z"/>
            <path class="cls-78"
                  d="M1118.89,1185.31s-3,17-4.47,33.81a11.58,11.58,0,0,0,11.08,12.55c22.4.93,70.3,2.75,87.49,2a3.77,3.77,0,0,0,3.32-5.17h0a8.42,8.42,0,0,0-4.32-4.54l-79.13-36.37Z"/>
            <path class="cls-79" d="M1116.43,1175.33l2.41,20.32s13.86,6.45,23.33-.82l-5.74-22.64Z"/>
            <path class="cls-80"
                  d="M1118.24,793.28c-1,5.31-5.59,264.82,22.15,381.12a3.94,3.94,0,0,1-2.31,4.59,68.61,68.61,0,0,1-22.6,4.59,6.8,6.8,0,0,1-6.74-4.88c-7.93-27-45.92-162.17-50.88-291.31-5.54-144.31,0-4.92,0-4.92l3.25-89.2Z"/>
            <path class="cls-81"
                  d="M1027.86,1194.17s-4.77,8.58-9.4,31.37a7.07,7.07,0,0,0,6.22,8.46c7.4.73,18.78,1.67,27.9,1.6a7.06,7.06,0,0,0,7-7.86c-1-8.32-4.16-22-13.88-32.6Z"/>
            <path class="cls-82" d="M1023.67,1168l5.63,30.74s5.57,4.14,16.59,1.13l-2.69-33.06Z"/>
            <path class="cls-83"
                  d="M1008.45,801.25c-22.69,136.92,4.92,338.41,14.23,377.84a6.14,6.14,0,0,0,5,4.67,41.23,41.23,0,0,0,17.74-.7,5.63,5.63,0,0,0,4-5.19c1.25-31.89-1-227.62,20.14-305a17.66,17.66,0,0,1,6.78-9.7l41-29.17,3.15-47.15Z"/>
            <path class="cls-84"
                  d="M1153,541.81c-68-1.12-143,17.85-143,17.85-20.26,118.26-3.54,254.65-3.54,254.65,52.64,13.81,112-8.44,112-8.44,8.75-49.42,49.57-188.53,49.57-188.53,33.22-4.12,26-31.38,48.54-44.05-17.19-19.93,9.29-10.27,5.77-25.25C1198.31,555.51,1174,542.16,1153,541.81Z"/>
            <path class="cls-1"
                  d="M1353.84,441.66a13,13,0,0,0-15.13-4.25c-10,42.27-62.47,76.53-116.36,93.28,3.52,15,11.62,40.35,28.81,60.27C1340.61,540.67,1353.84,441.66,1353.84,441.66Z"/>
            <path class="cls-85"
                  d="M1352.22,443.71c.7,2.23-7.39,5.61-12.16-3.48-.16-4.35-2.81-23-.21-26.56,13.86-18.89,40.73-42.58,40.73-42.58a6.41,6.41,0,0,1,.8,8.89l-13,13.57c2.73,4.93,6.06,9.09,7.62,15.05a18.26,18.26,0,0,1-1.83,13.44,160.13,160.13,0,0,1-8.36,13.68A18,18,0,0,1,1352.22,443.71Z"/>
            <path class="cls-86"
                  d="M1362.64,402.37l-11.88,10.06-3.72,10,10.59,11.75s3.56-19.89,6.2-24.2S1365.11,403.62,1362.64,402.37Z"/>
            <path class="cls-1"
                  d="M1036.08,625.5,1010,559.66s-63.5,43.15-74,97.86c12,.88,33.84,4,55.21,14.8C996,646.48,1036.08,625.5,1036.08,625.5Z"/>
            <path class="cls-87"
                  d="M1084.14,486.61l-21.63,62.56a2.26,2.26,0,0,0,1,2.72c5.9,3.26,27.14,12.68,52.74-3.55a10.59,10.59,0,0,0,4.89-7.58l7-54.15Z"/>
            <path class="cls-16"
                  d="M1043.09,552.62l25.81-21.93L1107.52,625l-28.16,374.64-87.93,2.63a2.26,2.26,0,0,1-2.32-2.32l12.28-360.44s.34-77.88,8.61-79.83S1043.09,552.62,1043.09,552.62Z"/>
            <path class="cls-1"
                  d="M1107.52,620.14l15-89.45L1135.28,542l27-.27,5.78,75.66-38.51,387.15a2.27,2.27,0,0,1-.85,1.55,2.23,2.23,0,0,1-1.71.45l-47.61-6.87Z"/>
            <path class="cls-1"
                  d="M1158.72,541.79s43.37-3,68.41-12.63c29.4,52.26,37,53.79,37,53.79s-35.62,31.6-96.14,34.39S1158.72,541.79,1158.72,541.79Z"/>
            <polygon class="cls-88"
                     points="1125.44 624.21 1125.44 633.38 1157.06 631.34 1157.06 621.15 1125.44 624.21"/>
            <path class="cls-3"
                  d="M1105.43,647.13a1.39,1.39,0,0,1-.65-.16L1075.11,631a1.36,1.36,0,0,1-.71-1l-4-27-10.5-1.86a1.4,1.4,0,0,1-1.08-1L1047.35,563a1.39,1.39,0,0,1,2.65-.82l11.2,36.38,10.64,1.89a1.39,1.39,0,0,1,1.13,1.16l4.06,27.33,29.06,15.61a1.38,1.38,0,0,1-.66,2.6Z"/>
            <path class="cls-3"
                  d="M1112.48,637.86a1.06,1.06,0,0,1-.51-.14,1,1,0,0,1-.39-1.41l15.51-27.19-2.55-15.31a1,1,0,0,1,.54-1.08l12.33-6.56L1134.24,542a1,1,0,0,1,2.07-.15l3.22,44.82a1,1,0,0,1-.55,1l-12.27,6.53,2.49,14.93a1,1,0,0,1-.12.68l-15.69,27.52A1.07,1.07,0,0,1,1112.48,637.86Z"/>
            <path class="cls-1"
                  d="M1091.66,685.52s-71.3,40.29-95.36,5.88c-5-7.14-6.19-14.24-5-21-21.37-10.79-43.21-13.91-55.21-14.8a75.53,75.53,0,0,0,8.21,51.77c42.14,77.09,156.75-4.26,156.75-4.26Z"/>
            <path class="cls-89"
                  d="M1083.09,736.49,1122,600.6a4,4,0,0,1,3.36-2.85c7.05-.83,27.48-3.14,51.06-5.13,28.42-2.41,61.41-4.35,81.13-2.7a4,4,0,0,1,3.25,5.73c-11.21,22.68-57.33,115-80.43,145.18a4,4,0,0,1-3.21,1.58l-90.28-.84A4,4,0,0,1,1083.09,736.49Z"/>
            <path class="cls-90"
                  d="M1180.46,580.84l28.21-4.7a2,2,0,0,1,2.26,2.63l-2.79,8.46a2,2,0,0,1-1.66,1.37l-27.15,3.63a2,2,0,0,1-2.24-2.47l1.73-7.39A2,2,0,0,1,1180.46,580.84Z"/>
            <path class="cls-91"
                  d="M1159.34,604.72l2.32-12.11a2.79,2.79,0,0,1,2.47-2.25l57-5.78a2.79,2.79,0,0,1,3,3.43l-3.62,15.09a2.79,2.79,0,0,1-2.58,2.14l-55.69,2.8A2.79,2.79,0,0,1,1159.34,604.72Z"/>
            <path class="cls-92"
                  d="M1092.49,703.66s-5.42-22.29-3.23-30.2,6.42-18.07,20.54-15.81,30.78,8.21,30.78,8.21-.84,10.3-11.57,7l6.65,5.15s-1,8.25-10,3.84l6.19,6.83s-3.9,6.78-10.57,2.43S1111.41,706.35,1092.49,703.66Z"/>
            <path class="cls-3"
                  d="M1024.52,706c-6.69,0-12.85-1-17.54-3.56a1.39,1.39,0,0,1,1.33-2.43c18.82,10.33,65.51-7.45,66-7.63.14-.05,9.09-3.16,12.26-9.35a1.38,1.38,0,1,1,2.46,1.26c-3.68,7.19-13.36,10.55-13.78,10.69C1073.77,695.51,1046.29,706,1024.52,706Z"/>
            <path class="cls-3"
                  d="M998.82,742.39a1.62,1.62,0,0,1-1.38-1.59,1.49,1.49,0,0,1,1.33-1.55c53.93-1.86,84.7-26.62,85-26.86a1.38,1.38,0,0,1,2,.16,1.69,1.69,0,0,1-.19,2.18c-.31.26-31.74,25-86.66,27.66Z"/>
            <path class="cls-93"
                  d="M1135.13,416.66c.71,1,22.65,77.46,22.65,77.46l-43.94,11.6-31.57-69.4S1123.36,400.31,1135.13,416.66Z"/>
            <path class="cls-94"
                  d="M1099.72,441.45a6.55,6.55,0,0,0-.61,5.73l13.56,37.28a6.69,6.69,0,0,0,.83,1.59c2,2.68,8.87,10.72,16.88,3.15,6.83-6.45,13.2-12.28,19.15-14a6.51,6.51,0,0,1,8.09,4.52c2,7.18,5.84,21.76,7.41,35.19a6.5,6.5,0,0,1-5.23,7.1c-8.78,1.72-26,4.56-40.66,3.76a6.52,6.52,0,0,1-5.56-3.75c-4.51-9.6-17.25-36.46-22-43.48-4.43-6.53-15-6.44-19.77-6a6.6,6.6,0,0,1-5-1.66c-4.09-3.69-10.82-12.2-1.15-22.52a6.54,6.54,0,0,0-.29-9.1c-4.51-4.4-8.88-11.87-1.53-21.17s17.28-8.47,23.7-6.39a6.78,6.78,0,0,0,7.73-2.53,4.32,4.32,0,0,1,3.81-2,6.34,6.34,0,0,0,6.46-6.32c0-6.15,2.35-13.67,12.81-17,19.18-6.17,31.35,12.31,32.67,26.16s-19.86,19.37-32.35,18.55C1109.49,427.91,1102.69,436.73,1099.72,441.45Z"/>
            <path class="cls-95"
                  d="M1096.71,492.22s-3.33-24.05-13.36-25.13-19.7,7.23-9.61,20.66C1086.28,504.44,1096.71,492.22,1096.71,492.22Z"/>
            <path class="cls-1"
                  d="M1138.49,419.67a1.35,1.35,0,0,1-.76-.23,1.37,1.37,0,0,1-.39-1.91c0-.07,4.38-6.81,2.11-13.85-1.69-5.23-6.55-9.4-14.45-12.42a1.38,1.38,0,0,1,1-2.58c8.74,3.33,14.16,8.1,16.11,14.17,2.67,8.33-2.24,15.88-2.44,16.2A1.4,1.4,0,0,1,1138.49,419.67Z"/>
        </g>
    </g>
</svg>
